<?xml version="1.0" encoding="utf-8"?>
<!-- Generator: Adobe Illustrator 27.5.0, SVG Export Plug-In . SVG Version: 6.00 Build 0)  -->
<svg version="1.1" xmlns="http://www.w3.org/2000/svg" xmlns:xlink="http://www.w3.org/1999/xlink" x="0px" y="0px"
	 viewBox="0 0 2200 2200" style="enable-background:new 0 0 2200 2200;" xml:space="preserve">
<g id="background">
	<rect y="0" style="fill:#FFFFFF;" width="2200" height="2200"/>
</g>
<g id="Objects">
	<g>
		<g>
			<path style="fill:#EF583A;" d="M1614.291,1014.906c-49.826-70.432-204.685-270.312-498.824-270.312
				c-192.765,0-322.277,63.384-406.754,150.808c-232.703,240.819-171.014,492.67-171.014,492.67
				c-56.98-43.747-71.069-174.836-61.689-251.851c9.39-77.014,35.19-151.755,34.45-229.493
				c-0.75-77.727-39.91-164.25-108.01-176.321c22.78-13.301,46.43-26.891,72.04-28.596c25.61-1.705,53.88,11.802,63.23,38.735
				c6.71,19.326,2.91,42.341,11.92,60.427c16.27,32.647,64.5,24.142,82.81-7.09c18.3-31.242,14.77-72.322,7.69-108.907
				c-7.09-36.575-17.07-74.317-9.43-110.757c9.02-42.982,40.71-74.896,73.11-99.709c32.39-24.803,67.97-46.31,92.43-80.797
				c23.48-33.102,33.55-83.205,12.93-117.857c20.25,2.263,39.83,12.619,53.88,29.258c19.4,22.964,27.67,57.203,21.28,88.083
				c-5.37,25.992-20.34,49.834-19.35,76.487c0.98,26.312,19.75,50.402,42.76,54.888c23,4.496,47.86-11.089,56.62-35.5
				c12.46-34.704-6.53-73.707-3.7-111.016c3.27-43.24,40.41-79.546,78.83-77.056c-24,37.071-25.46,92.527,0.49,127.882
				c25.96,35.355,78.72,42.61,108.63,11.472c15.38-16.008,23.43-38.9,36.08-57.709c12.64-18.809,34.31-34.291,53.78-25.64
				c-52.611,42.981-39.32,199.573,59.036,191.332c68.097-5.706,80.704-116.734,31.384-144.929
				c104.186-0.675,55.23,145.027,114.99,191.709c27.7,21.641,67.89,0.785,86.7-31.356c18.8-32.141,22.42-72.746,25.48-111.481
				c31.39,32.482,34.72,88.093,29.4,136.594c-5.32,48.511-16.92,97.942-7.06,145.471c9.87,47.529,52.53,90.729,91.74,73.232
				c25.79-11.513,39.45-43.292,56.46-68.623c17.01-25.341,47.89-46.744,70.94-29.03c-46.5,63.166-54.03,153.719-46.84,236.5
				c7.2,82.781,26.88,164.239,26.45,247.434c-0.43,83.205-26.08,173.117-87.31,215.996
				C1689.85,1409.853,1712.437,1153.641,1614.291,1014.906z"/>
		</g>
		<g>
			<path style="fill:#FFAC48;" d="M572.747,1133.065c-26.66-32.89-24.95-80.22-16.39-121.68s22.69-83.3,16.25-125.14
				c10.58,17.44,25.83,37.29,46.07,34.68c8.22-1.06,15.45-5.88,21.89-11.1c24.07-19.48,41.83-46.65,50.02-76.52
				c10.29-37.51,5.58-77.35,9.86-116.01c3.84-34.68,18.2-71.91,47.31-89.34c11.06,24.04,32.45,43.38,57.82,51.13
				c31.75,9.69,68.45,0.84,92.28-22.26c14.51-14.06,24.02-32.33,35.62-48.87c11.6-16.54,26.7-32.26,46.38-36.86
				c-6.64,39.05,27.41,79.84,67.02,80.29c39.6,0.45,74.57-39.55,68.83-78.74c20.71-2.34,36.41,18.79,42.61,38.69
				c6.21,19.9,9.68,63.11,71.93,73.31c36.4,4.57,104.93-3.11,112.15-78.61c23.49,11.7,14.44,43.5,22.12,65.52
				c9.72,27.86,36.05,49.18,65.32,52.89c29.26,3.72,60.08-10.35,76.45-34.9c-15.68,43.19-11.65,93.12,10.76,133.23
				c22.41,40.12,62.8,69.73,107.8,79.03c26.64,5.5,57.83,2.65,75.72-17.83c-26.7,39.17-23.27,91.42-11.9,137.45
				s29.499,91.24,29.5,138.65c0.002,65.662-23.39,90.915-23.39,90.915s-67.49-506.397-579.31-506.397
				C689.706,744.594,572.747,1133.065,572.747,1133.065z"/>
		</g>
		<g>
			<path d="M1665.516,1094.802c-30.068-71.089-73.11-134.929-127.928-189.748c-54.819-54.819-118.66-97.861-189.749-127.929
				c-73.609-31.134-151.79-46.92-232.373-46.92c-80.583,0-158.764,15.786-232.373,46.92
				c-71.089,30.068-134.93,73.109-189.749,127.929c-54.818,54.819-97.86,118.66-127.928,189.748
				c-31.134,73.609-46.92,151.79-46.92,232.373c0,80.583,15.786,158.764,46.92,232.373c30.068,71.089,73.11,134.93,127.928,189.749
				c54.819,54.818,118.66,97.86,189.749,127.928c73.609,31.134,151.79,46.92,232.373,46.92c80.583,0,158.764-15.786,232.373-46.92
				c71.089-30.068,134.93-73.11,189.749-127.928c54.818-54.819,97.86-118.66,127.928-189.749
				c31.134-73.609,46.92-151.79,46.92-232.373C1712.437,1246.592,1696.65,1168.411,1665.516,1094.802z M1633.873,1546.164
				c-28.336,66.994-68.905,127.163-120.58,178.838c-51.675,51.675-111.844,92.244-178.838,120.58
				c-69.351,29.333-143.028,44.206-218.988,44.206s-149.637-14.873-218.988-44.206c-66.994-28.336-127.163-68.905-178.838-120.58
				c-51.675-51.674-92.244-111.844-120.58-178.838c-29.333-69.351-44.206-143.028-44.206-218.988
				c0-20.133,1.056-40.104,3.138-59.879c9.87,7.897,20.984,14.125,33.119,18.073c25.21,8.203,54.234,6.949,75.63,22.608
				c10.883,7.98,35.775,30.965,52.696,69.918c-19.85,14.095-35.182,36.359-37.261,61.896c-2.311,28.405,12.91,58.331,37.39,68.613
				c20.151,8.461,44.27,3.977,62.6,16.397c14.791,10.033,22.427,29.144,25.055,47.861c2.646,18.725,1.168,37.828,2.293,56.725
				c2.972,50.034,25.064,98.393,59.938,131.213c7.962,7.49,16.956,14.396,27.34,16.303c10.376,1.89,22.367-2.508,27.022-12.764
				c3.685-8.091,2.19-17.677,1.83-26.705c-1.211-29.505,10.505-57.627,21.963-84.418c6.399-14.971,13.065-30.347,24.222-41.565
				c11.811-11.879,27.521-17.961,40.886-27.718c21.663-15.822,36.772-41.839,40.594-69.893c2.439-17.952-0.979-39.074-15.152-48.677
				c-13.151-8.907-30.055-4.664-45.559-4.767c-27.933-0.198-53.848-15.435-76.885-32.597
				c-23.037-17.145-44.949-36.858-70.889-48.093c-10.892-4.724-46.804-22.075-84.22-17.6c-9.74-27.366-36.789-67.032-45.524-79.264
				c-18.141-25.408-12.128-64.834,12.764-83.688c24.892-18.845,64.473-13.941,84.005,10.41c7.344,9.139,12.025,20.391,20.529,28.457
				c8.504,8.057,23.363,11.622,31.472,3.152c4.157-4.346,6.7-11.312,6.7-21.379c0-9.688-2.353-22.244-7.884-38.086
				c-4.045-11.585,0.197-24.455,10.43-31.227c92.462-61.186,57.932-131.292,145.074-186.5c10.849-6.872,22.891-12.532,30.956-22.522
				c8.074-9.99,11.269-25.313,3.513-35.561c-13.528-17.866-41.144-5.368-61.973,2.912c-39.58,15.736-114.326,26.396-133.386-9.938
				c-5.351-10.204-2.757-23.466,3.565-33.095c10.307-15.745,30.793-21.233,44.391-34.238c8.652-8.275,13.966-19.71,15.385-31.584
				c62.816-23.493,128.916-35.397,196.844-35.397c75.96,0,149.638,14.873,218.988,44.206c29.376,12.425,57.44,27.203,84.051,44.238
				c-16.405,11.794-29.944,26.262-37.856,39.351c-8.194,13.554-12.893,29.299-23.071,41.436
				c-15.083,17.986-39.546,24.961-62.841,27.83c-23.295,2.86-47.294,2.62-69.489,10.23c-22.736,7.791-44.682,30.553-36.823,53.255
				c7.146,20.666,33.594,26.722,55.402,25.305c23.432-1.529,46.28-7.825,69.566-10.763c23.286-2.946,48.118-2.199,68.57,9.311
				c20.452,11.518,34.822,36.23,28.337,58.786c-7.421,25.889-48.72,30.519-75.347,34.581c-24.094,3.685-45.327-7.816-78.937,10.161
				c-46.864-12.584-76.927-14.782-124.728-2.86c-53.624,13.374-101.622,55.325-112.849,109.43
				c-11.227,54.097,21.809,116.439,75.502,129.504c27.658,6.734,56.588,0.79,84.984-1.254c28.397-2.053,59.912,1.065,79.899,21.345
				c26.627,27.031,21.336,70.674,18.201,108.477c-3.135,37.613-2.242,75.562,2.637,112.986c3.702,28.38,15.556,62.411,43.892,66.56
				c23.939,3.505,44.588-17.875,54.294-40.036c9.706-22.17,13.417-47.199,27.332-66.998c14.516-20.675,39.048-33.886,49.39-56.931
				c10.11-22.53,4.183-48.754,7.688-73.2c5.772-40.414,36.299-72.109,64.318-101.794c28.019-29.703,56.631-64.232,56.957-105.058
				c0.12-16.157-6.725-34.77-22.272-39.177c-16.483-4.69-32.365,8.993-42.329,22.943c-9.972,13.941-19.318,30.475-35.664,35.638
				c-18.562,5.875-38.404-5.892-50.944-20.769c-12.541-14.886-20.769-33.13-34.092-47.311c-6.846-7.301-15.891-13.382-25.408-16.372
				c17.067-12.566,38.799-18.923,59.852-16.062c28.113,3.814,60.255,21.018,81.789,2.525c13.073-11.226,14.636-30.922,12.145-47.972
				c-2.491-17.05-8.04-34.117-5.497-51.159c0.077-0.481,0.163-0.945,0.249-1.417c4.235-22.401,33.061-29.574,47.672-12.068
				c9.371,11.244,19.919,21.302,33.147,27.229c7.659,3.433,16.467,4.861,24.954,4.225c2.314,5.052,4.566,10.141,6.737,15.274
				c29.333,69.35,44.206,143.029,44.206,218.988C1678.079,1403.135,1663.206,1476.813,1633.873,1546.164z"/>
		</g>
	</g>
</g>
</svg>
