<?xml version="1.0" encoding="utf-8" standalone="no"?>
<!DOCTYPE svg PUBLIC "-//W3C//DTD SVG 1.1//EN"
  "http://www.w3.org/Graphics/SVG/1.1/DTD/svg11.dtd">
<svg xmlns:xlink="http://www.w3.org/1999/xlink" width="712.8pt" height="681.506357pt" viewBox="0 0 712.8 681.506357" xmlns="http://www.w3.org/2000/svg" version="1.1">
 <metadata>
  <rdf:RDF xmlns:dc="http://purl.org/dc/elements/1.1/" xmlns:cc="http://creativecommons.org/ns#" xmlns:rdf="http://www.w3.org/1999/02/22-rdf-syntax-ns#">
   <cc:Work>
    <dc:type rdf:resource="http://purl.org/dc/dcmitype/StillImage"/>
    <dc:date>2026-01-18T10:11:46.943036</dc:date>
    <dc:format>image/svg+xml</dc:format>
    <dc:creator>
     <cc:Agent>
      <dc:title>Matplotlib v3.10.7, https://matplotlib.org/</dc:title>
     </cc:Agent>
    </dc:creator>
   </cc:Work>
  </rdf:RDF>
 </metadata>
 <defs>
  <style type="text/css">*{stroke-linejoin: round; stroke-linecap: butt}</style>
 </defs>
 <g id="figure_1">
  <g id="patch_1">
   <path d="M 0 681.506357 
L 712.8 681.506357 
L 712.8 0 
L 0 0 
z
"/>
  </g>
  <g id="axes_1">
   <g id="patch_2">
    <path d="M 570.402176 634.247309 
C 604.580553 591.298171 626.429683 538.93962 633.370036 483.353156 
C 640.31039 427.766692 632.05765 371.22946 609.586143 320.416301 
C 587.114636 269.603143 551.344926 226.595659 506.500019 196.471356 
C 461.655111 166.347053 409.572115 150.339997 356.4 150.339997 
C 303.227885 150.339997 251.144889 166.347053 206.299981 196.471356 
C 161.455074 226.595659 125.685364 269.603143 103.213857 320.416301 
C 80.74235 371.22946 72.48961 427.766692 79.429964 483.353156 
C 86.370317 538.93962 108.219447 591.298171 142.397824 634.247309 
L 186.981611 594.800941 
C 159.923729 560.79954 142.626501 519.34902 137.132054 475.343069 
C 131.637608 431.337119 138.171027 386.578477 155.96097 346.351393 
C 173.750913 306.124309 202.0686 272.076718 237.570819 248.228311 
C 273.073037 224.379905 314.305409 211.707652 356.4 211.707652 
C 398.494591 211.707652 439.726963 224.379905 475.229181 248.228311 
C 510.7314 272.076718 539.049087 306.124309 556.83903 346.351393 
C 574.628973 386.578477 581.162392 431.337119 575.667946 475.343069 
C 570.173499 519.34902 552.876271 560.79954 525.818389 594.800941 
z
" clip-path="url(#pda68b2e44d)" style="stroke: #666666; stroke-width: 2; stroke-linejoin: miter"/>
   </g>
   <g id="patch_3">
    <path d="M 151.18446 245.03979 
C 105.081551 297.66999 78.736106 366.269556 77.119116 437.894779 
C 75.502126 509.520001 98.722117 579.363662 142.397824 634.247309 
L 186.981611 594.800941 
C 152.405009 551.351387 134.022516 496.058489 135.302634 439.355187 
C 136.582751 382.651886 157.439561 328.343897 193.937698 286.678322 
z
" clip-path="url(#pda68b2e44d)" style="fill: #2dc937; opacity: 0.8"/>
   </g>
   <g id="patch_4">
    <path d="M 413.614791 156.584049 
C 366.355094 146.157118 317.329189 148.825177 271.338654 164.326917 
C 225.348118 179.828658 183.945054 207.640923 151.18446 245.03979 
L 193.937698 286.678322 
C 219.873168 257.070885 252.650593 235.052842 289.059767 222.78063 
C 325.468941 210.508419 364.281116 208.396206 401.695043 216.65086 
z
" clip-path="url(#pda68b2e44d)" style="fill: #e7b416; opacity: 0.8"/>
   </g>
   <g id="patch_5">
    <path d="M 620.395429 348.56205 
C 604.603547 300.451025 577.249058 257.468745 541.011051 223.824878 
C 504.773043 190.181012 460.874488 167.010981 413.614791 156.584049 
L 401.695043 216.65086 
C 439.10897 224.905514 473.861993 243.248455 502.550415 269.883183 
C 531.238838 296.517911 552.894474 330.545549 565.396381 368.633444 
z
" clip-path="url(#pda68b2e44d)" style="fill: #db7b2b; opacity: 0.8"/>
   </g>
   <g id="patch_6">
    <path d="M 570.402176 634.247309 
C 601.438007 595.247148 622.361147 548.421039 631.122392 498.355111 
C 639.883638 448.289183 636.187311 396.673076 620.395429 348.56205 
L 565.396381 368.633444 
C 577.898288 406.72134 580.824547 447.584091 573.888561 487.219617 
C 566.952575 526.855143 550.388422 563.925813 525.818389 594.800941 
z
" clip-path="url(#pda68b2e44d)" style="fill: #cc3232; opacity: 0.8"/>
   </g>
   <g id="text_1">
    <!-- PPM -->
    <g style="fill: #cccccc" transform="translate(312.80625 329.888088) scale(0.6 -0.6)">
     <defs>
      <path id="LCDReg-50" d="M 2513 3753 
L 1228 3753 
L 809 4266 
L 2484 4266 
Q 2609 4266 2647 4250 
Q 2684 4238 2772 4147 
L 2863 4053 
L 2513 3753 
z
M 1128 3697 
L 913 2466 
L 613 2209 
L 400 2456 
L 706 4206 
L 1128 3697 
z
M 2359 2450 
L 2578 3681 
L 2919 3972 
L 2988 3894 
Q 3081 3794 3081 3669 
Q 3081 3634 3075 3594 
L 2916 2697 
Q 2888 2534 2866 2494 
Q 2831 2425 2769 2375 
L 2559 2200 
L 2359 2450 
z
M 981 2391 
L 2266 2391 
L 2469 2134 
L 2278 1978 
Q 2181 1903 2116 1891 
Q 2066 1878 1966 1878 
L 891 1878 
L 681 2134 
L 981 2391 
z
M 797 1816 
L 516 213 
L 213 -44 
L 3 213 
L 288 1816 
L 588 2072 
L 797 1816 
z
" transform="scale(0.015625)"/>
      <path id="LCDReg-4d" d="M 2484 3753 
L 1228 3753 
L 1000 4038 
L 1259 4266 
L 2634 4266 
L 2813 4038 
L 2484 3753 
z
M 2091 3641 
L 1913 2634 
L 1625 2388 
L 1422 2634 
L 1597 3641 
L 2091 3641 
z
M 1131 3706 
L 900 2391 
L 597 2134 
L 388 2391 
L 619 3706 
L 922 3963 
L 1131 3706 
z
M 809 1878 
L 516 213 
L 213 -44 
L 3 213 
L 297 1878 
L 597 2134 
L 809 1878 
z
M 2581 3706 
L 2884 3963 
L 3094 3706 
L 2863 2391 
L 2559 2134 
L 2350 2391 
L 2581 3706 
z
M 2259 1878 
L 2559 2134 
L 2772 1878 
L 2478 213 
L 2178 -44 
L 1966 213 
L 2259 1878 
z
" transform="scale(0.015625)"/>
     </defs>
     <use xlink:href="#LCDReg-50"/>
     <use xlink:href="#LCDReg-50" transform="translate(47.998047 0)"/>
     <use xlink:href="#LCDReg-4d" transform="translate(95.996094 0)"/>
    </g>
   </g>
   <g id="line2d_1">
    <path d="M 156.664636 621.624471 
L 128.131013 646.870147 
" clip-path="url(#pda68b2e44d)" style="fill: none; stroke: #ffffff; stroke-width: 1.5; stroke-linecap: square"/>
   </g>
   <g id="line2d_2">
    <path d="M 110.693039 520.977513 
L 66.019046 534.808926 
" clip-path="url(#pda68b2e44d)" style="fill: none; stroke: #ffffff; stroke-width: 3; stroke-linecap: square"/>
   </g>
   <g id="line2d_3">
    <path d="M 97.76167 410.101046 
L 60.813337 405.129089 
" clip-path="url(#pda68b2e44d)" style="fill: none; stroke: #ffffff; stroke-width: 1.5; stroke-linecap: square"/>
   </g>
   <g id="line2d_4">
    <path d="M 132.692837 303.680909 
L 100.734671 283.506075 
" clip-path="url(#pda68b2e44d)" style="fill: none; stroke: #ffffff; stroke-width: 1.5; stroke-linecap: square"/>
   </g>
   <g id="line2d_5">
    <path d="M 168.285755 261.695203 
L 134.083165 228.384378 
" clip-path="url(#pda68b2e44d)" style="fill: none; stroke: #ffffff; stroke-width: 3; stroke-linecap: square"/>
   </g>
   <g id="line2d_6">
    <path d="M 205.158282 220.955742 
L 183.552322 188.963028 
" clip-path="url(#pda68b2e44d)" style="fill: none; stroke: #ffffff; stroke-width: 1.5; stroke-linecap: square"/>
   </g>
   <g id="line2d_7">
    <path d="M 302.999529 175.805429 
L 295.37089 137.36267 
" clip-path="url(#pda68b2e44d)" style="fill: none; stroke: #ffffff; stroke-width: 1.5; stroke-linecap: square"/>
   </g>
   <g id="line2d_8">
    <path d="M 408.846892 180.610774 
L 418.38269 132.557325 
" clip-path="url(#pda68b2e44d)" style="fill: none; stroke: #ffffff; stroke-width: 3; stroke-linecap: square"/>
   </g>
   <g id="line2d_9">
    <path d="M 507.641718 220.955742 
L 529.247678 188.963028 
" clip-path="url(#pda68b2e44d)" style="fill: none; stroke: #ffffff; stroke-width: 1.5; stroke-linecap: square"/>
   </g>
   <g id="line2d_10">
    <path d="M 580.107163 303.680909 
L 612.065329 283.506075 
" clip-path="url(#pda68b2e44d)" style="fill: none; stroke: #ffffff; stroke-width: 1.5; stroke-linecap: square"/>
   </g>
   <g id="line2d_11">
    <path d="M 598.39581 356.590608 
L 642.395048 340.533493 
" clip-path="url(#pda68b2e44d)" style="fill: none; stroke: #ffffff; stroke-width: 3; stroke-linecap: square"/>
   </g>
   <g id="line2d_12">
    <path d="M 615.03833 410.101046 
L 651.986663 405.129089 
" clip-path="url(#pda68b2e44d)" style="fill: none; stroke: #ffffff; stroke-width: 1.5; stroke-linecap: square"/>
   </g>
   <g id="line2d_13">
    <path d="M 606.57436 522.360654 
L 642.313554 533.425785 
" clip-path="url(#pda68b2e44d)" style="fill: none; stroke: #ffffff; stroke-width: 1.5; stroke-linecap: square"/>
   </g>
   <g id="line2d_14">
    <path d="M 552.568661 618.468762 
L 588.23569 650.025856 
" clip-path="url(#pda68b2e44d)" style="fill: none; stroke: #ffffff; stroke-width: 3; stroke-linecap: square"/>
   </g>
   <g id="patch_7">
    <path d="M 519.009583 269.242245 
L 515.243265 299.66799 
L 502.831922 286.894224 
L 356.483298 444.990471 
L 356.316702 444.819011 
L 502.665327 286.722764 
L 490.253984 273.948998 
z
" clip-path="url(#pda68b2e44d)" style="fill: #ffffff; stroke: #ffffff; stroke-width: 4; stroke-linejoin: miter"/>
   </g>
   <g id="line2d_15">
    <path d="M 535.270541 251.675995 
L 567.792457 216.543496 
" clip-path="url(#pda68b2e44d)" style="fill: none; stroke: #ffffff; stroke-width: 3; stroke-linecap: square"/>
   </g>
   <g id="text_2">
    <!-- 280 -->
    <g style="fill: #cccccc" transform="translate(92.194858 672.468466) scale(0.2 -0.2)">
     <defs>
      <path id="LCDReg-32" d="M 2434 3753 
L 1053 3753 
L 844 4009 
L 1144 4266 
L 2463 4266 
Q 2606 4272 2713 4150 
L 2788 4053 
L 2434 3753 
z
M 2275 2450 
L 2491 3672 
L 2850 3969 
L 2944 3844 
Q 2997 3772 2997 3688 
Q 2997 3647 2984 3566 
L 2816 2616 
Q 2797 2494 2688 2391 
L 2484 2206 
L 2275 2450 
z
M 2409 2134 
L 2188 1963 
Q 2103 1900 2059 1891 
Q 2003 1878 1919 1878 
L 819 1878 
L 606 2134 
L 800 2313 
Q 859 2366 944 2384 
Q 972 2391 1088 2391 
L 2194 2391 
L 2409 2134 
z
M 713 1825 
L 494 575 
L -106 81 
L 163 1609 
Q 181 1703 213 1759 
Q 222 1778 331 1878 
L 522 2050 
L 713 1825 
z
M 578 513 
L 1931 513 
L 2144 256 
L 1841 0 
L -44 0 
L 578 513 
z
" transform="scale(0.015625)"/>
      <path id="LCDReg-38" d="M 2834 4053 
L 2494 3753 
L 1238 3753 
L 1000 4053 
L 1141 4163 
Q 1234 4234 1263 4247 
Q 1309 4266 1391 4266 
L 2522 4266 
Q 2613 4266 2653 4241 
Q 2672 4231 2734 4163 
L 2834 4053 
z
M 2163 1878 
L 906 1878 
L 694 2134 
L 997 2391 
L 2253 2391 
L 2463 2134 
L 2163 1878 
z
M 297 213 
L 666 513 
L 1922 513 
L 2188 213 
L 2059 94 
Q 1938 -6 1744 0 
L 663 0 
Q 466 -3 381 94 
L 297 213 
z
M 1128 3694 
L 909 2447 
L 613 2209 
L 513 2322 
Q 419 2428 419 2534 
Q 419 2569 441 2691 
L 588 3519 
Q 606 3622 644 3675 
Q 659 3703 747 3784 
L 919 3950 
L 1128 3694 
z
M 800 1819 
L 575 559 
L 234 288 
L 119 431 
Q 75 488 75 575 
Q 75 619 84 672 
L 250 1603 
Q 272 1728 306 1788 
Q 334 1841 419 1919 
L 588 2069 
L 800 1819 
z
M 2581 3694 
L 2881 3950 
L 2997 3784 
Q 3069 3681 3069 3600 
Q 3069 3563 3063 3519 
L 2916 2691 
Q 2888 2531 2838 2453 
Q 2794 2388 2713 2322 
L 2575 2209 
L 2359 2447 
L 2581 3694 
z
M 2250 1819 
L 2550 2069 
L 2663 1919 
Q 2738 1822 2738 1734 
Q 2738 1684 2722 1603 
L 2559 672 
Q 2534 522 2441 431 
L 2275 288 
L 2028 559 
L 2250 1819 
z
" transform="scale(0.015625)"/>
      <path id="LCDReg-30" d="M 600 2134 
L 809 1878 
L 584 600 
L 259 313 
L 131 469 
Q 78 531 78 588 
Q 78 634 103 769 
L 297 1878 
L 600 2134 
L 388 2391 
L 584 3497 
Q 613 3663 631 3697 
Q 653 3744 719 3797 
L 900 3956 
L 1125 3669 
L 900 2391 
L 600 2134 
z
M 2563 2134 
L 2350 2391 
L 2575 3669 
L 2900 3956 
L 3028 3797 
Q 3081 3734 3081 3678 
Q 3081 3631 3059 3497 
L 2863 2391 
L 2563 2134 
L 2772 1878 
L 2578 769 
Q 2547 603 2528 569 
Q 2503 522 2444 469 
L 2259 313 
L 2034 600 
L 2259 1878 
L 2563 2134 
z
M 2841 4041 
L 2506 3753 
L 1225 3753 
L 991 4041 
L 1122 4159 
Q 1238 4263 1375 4266 
L 2534 4266 
Q 2672 4263 2753 4159 
L 2841 4041 
z
M 319 225 
L 653 513 
L 1934 513 
L 2169 225 
L 2038 106 
Q 1922 3 1784 0 
L 625 0 
Q 484 3 406 106 
L 319 225 
z
" transform="scale(0.015625)"/>
     </defs>
     <use xlink:href="#LCDReg-32"/>
     <use xlink:href="#LCDReg-38" transform="translate(46.679688 0)"/>
     <use xlink:href="#LCDReg-30" transform="translate(96.044922 0)"/>
    </g>
   </g>
   <g id="text_3">
    <!-- 300 -->
    <g style="fill: #cccccc" transform="translate(26.019941 550.054711) scale(0.25 -0.25)">
     <defs>
      <path id="LCDReg-33" d="M 2084 3753 
L 753 3753 
L 544 4009 
L 844 4266 
L 2103 4266 
Q 2222 4266 2263 4244 
Q 2306 4222 2369 4147 
L 2450 4053 
L 2084 3753 
z
M 1934 2450 
L 2150 3684 
L 2513 3966 
L 2584 3878 
Q 2659 3784 2659 3700 
Q 2659 3659 2641 3553 
L 2478 2622 
Q 2463 2538 2431 2488 
Q 2422 2472 2322 2391 
L 2159 2213 
L 1934 2450 
z
M 513 2391 
L 1844 2391 
L 2063 2134 
L 1753 1878 
L 425 1878 
L 213 2138 
L 513 2391 
z
M 1603 566 
L 1819 1800 
L 2134 2069 
L 2244 1950 
Q 2319 1866 2319 1769 
Q 2319 1725 2309 1666 
L 2131 663 
Q 2113 566 2078 516 
Q 2056 488 1972 416 
L 1822 288 
L 1603 566 
z
M 184 513 
L 1513 513 
L 1747 213 
L 1603 91 
Q 1491 0 1294 0 
L 50 0 
L -159 256 
L 184 513 
z
" transform="scale(0.015625)"/>
     </defs>
     <use xlink:href="#LCDReg-33"/>
     <use xlink:href="#LCDReg-30" transform="translate(42.675781 0)"/>
     <use xlink:href="#LCDReg-30" transform="translate(91.992188 0)"/>
    </g>
   </g>
   <g id="text_4">
    <!-- 320 -->
    <g style="fill: #cccccc" transform="translate(19.2349 408.064185) scale(0.2 -0.2)">
     <use xlink:href="#LCDReg-33"/>
     <use xlink:href="#LCDReg-32" transform="translate(42.675781 0)"/>
     <use xlink:href="#LCDReg-30" transform="translate(89.355469 0)"/>
    </g>
   </g>
   <g id="text_5">
    <!-- 340 -->
    <g style="fill: #cccccc" transform="translate(63.186358 275.039013) scale(0.2 -0.2)">
     <defs>
      <path id="LCDReg-34" d="M 1022 4053 
L 741 2447 
L 438 2200 
L 353 2294 
Q 247 2416 247 2513 
Q 247 2556 263 2647 
L 509 4053 
L 813 4309 
L 1022 4053 
z
M 2984 4053 
L 2706 2463 
L 2403 2206 
L 2194 2463 
L 2475 4053 
L 2775 4309 
L 2984 4053 
z
M 822 2391 
L 2109 2391 
L 2322 2134 
L 2019 1878 
L 931 1878 
Q 784 1878 741 1894 
Q 678 1916 625 1978 
L 500 2128 
L 822 2391 
z
M 2588 1800 
L 2309 213 
L 2006 -44 
L 1797 213 
L 2075 1800 
L 2378 2056 
L 2588 1800 
z
" transform="scale(0.015625)"/>
     </defs>
     <use xlink:href="#LCDReg-33"/>
     <use xlink:href="#LCDReg-34" transform="translate(39.800781 0)"/>
     <use xlink:href="#LCDReg-30" transform="translate(86.480469 0)"/>
    </g>
   </g>
   <g id="text_6">
    <!-- 350 -->
    <g style="fill: #2dc937" transform="translate(99.647886 220.059043) scale(0.25 -0.25)">
     <defs>
      <path id="LCDReg-35" d="M 2506 3753 
L 1147 3753 
L 719 4266 
L 2597 4266 
L 2806 4009 
L 2506 3753 
z
M 1044 3691 
L 825 2450 
L 531 2209 
L 419 2341 
Q 334 2438 334 2531 
Q 334 2575 347 2638 
L 619 4194 
L 1044 3691 
z
M 916 2391 
L 2025 2391 
Q 2153 2391 2194 2363 
Q 2231 2344 2303 2256 
L 2400 2134 
L 2091 1878 
L 1041 1878 
Q 881 1878 828 1900 
Q 769 1925 703 2003 
L 600 2134 
L 916 2391 
z
M 1941 553 
L 2163 1809 
L 2472 2063 
L 2581 1931 
Q 2653 1847 2653 1744 
Q 2653 1691 2638 1606 
L 2484 741 
Q 2450 538 2353 447 
L 2156 288 
L 1941 553 
z
M 481 513 
L 1834 513 
L 2075 213 
L 1934 94 
Q 1822 0 1638 0 
L 391 0 
L 181 256 
L 481 513 
z
" transform="scale(0.015625)"/>
     </defs>
     <use xlink:href="#LCDReg-33"/>
     <use xlink:href="#LCDReg-35" transform="translate(42.675781 0)"/>
     <use xlink:href="#LCDReg-30" transform="translate(89.355469 0)"/>
    </g>
   </g>
   <g id="text_7">
    <!-- 360 -->
    <g style="fill: #cccccc" transform="translate(153.349415 171.632554) scale(0.2 -0.2)">
     <defs>
      <path id="LCDReg-36" d="M 2591 3753 
L 1238 3753 
L 997 4053 
L 1150 4166 
Q 1247 4238 1291 4250 
Q 1338 4266 1456 4266 
L 2681 4266 
L 2891 4009 
L 2591 3753 
z
M 1128 3691 
L 913 2466 
L 609 2209 
L 400 2466 
L 594 3572 
Q 622 3731 741 3828 
L 916 3963 
L 1128 3691 
z
M 997 2391 
L 2128 2391 
Q 2231 2391 2272 2369 
Q 2309 2353 2369 2278 
L 2481 2134 
L 2166 1878 
L 906 1878 
L 697 2134 
L 997 2391 
z
M 797 1813 
L 578 578 
L 269 300 
L 138 431 
Q 75 494 75 584 
Q 75 625 88 691 
L 284 1813 
L 584 2069 
L 797 1813 
z
M 2028 563 
L 2247 1809 
L 2553 2050 
L 2669 1878 
Q 2734 1781 2734 1744 
Q 2734 1672 2716 1566 
L 2566 722 
Q 2531 522 2413 422 
L 2241 281 
L 2028 563 
z
M 666 513 
L 1925 513 
L 2156 206 
L 2044 113 
Q 1959 41 1893 20 
Q 1828 0 1691 0 
L 722 0 
Q 541 0 497 25 
Q 450 47 394 113 
L 316 206 
L 666 513 
z
" transform="scale(0.015625)"/>
     </defs>
     <use xlink:href="#LCDReg-33"/>
     <use xlink:href="#LCDReg-36" transform="translate(42.675781 0)"/>
     <use xlink:href="#LCDReg-30" transform="translate(90.673828 0)"/>
    </g>
   </g>
   <g id="text_8">
    <!-- 380 -->
    <g style="fill: #cccccc" transform="translate(275.515036 115.194663) scale(0.2 -0.2)">
     <use xlink:href="#LCDReg-33"/>
     <use xlink:href="#LCDReg-38" transform="translate(42.675781 0)"/>
     <use xlink:href="#LCDReg-30" transform="translate(92.041016 0)"/>
    </g>
   </g>
   <g id="text_9">
    <!-- 400 -->
    <g style="fill: #cccccc" transform="translate(404.986527 116.860679) scale(0.25 -0.25)">
     <use xlink:href="#LCDReg-34"/>
     <use xlink:href="#LCDReg-30" transform="translate(46.679688 0)"/>
     <use xlink:href="#LCDReg-30" transform="translate(95.996094 0)"/>
    </g>
   </g>
   <g id="text_10">
    <!-- 420 -->
    <g style="fill: #cccccc" transform="translate(531.183398 171.632554) scale(0.2 -0.2)">
     <use xlink:href="#LCDReg-34"/>
     <use xlink:href="#LCDReg-32" transform="translate(46.679688 0)"/>
     <use xlink:href="#LCDReg-30" transform="translate(93.359375 0)"/>
    </g>
   </g>
   <g id="text_11">
    <!-- 440 -->
    <g style="fill: #cccccc" transform="translate(622.052704 275.039013) scale(0.2 -0.2)">
     <use xlink:href="#LCDReg-34"/>
     <use xlink:href="#LCDReg-34" transform="translate(43.804688 0)"/>
     <use xlink:href="#LCDReg-30" transform="translate(90.484375 0)"/>
    </g>
   </g>
   <g id="text_12">
    <!-- 450 -->
    <g style="fill: #cc3232" transform="translate(646.558729 340.835013) scale(0.25 -0.25)">
     <use xlink:href="#LCDReg-34"/>
     <use xlink:href="#LCDReg-35" transform="translate(46.679688 0)"/>
     <use xlink:href="#LCDReg-30" transform="translate(93.359375 0)"/>
    </g>
   </g>
   <g id="text_13">
    <!-- 460 -->
    <g style="fill: #cccccc" transform="translate(665.297913 408.064185) scale(0.2 -0.2)">
     <use xlink:href="#LCDReg-34"/>
     <use xlink:href="#LCDReg-36" transform="translate(46.679688 0)"/>
     <use xlink:href="#LCDReg-30" transform="translate(94.677734 0)"/>
    </g>
   </g>
   <g id="text_14">
    <!-- 480 -->
    <g style="fill: #cccccc" transform="translate(654.582012 548.388695) scale(0.2 -0.2)">
     <use xlink:href="#LCDReg-34"/>
     <use xlink:href="#LCDReg-38" transform="translate(46.679688 0)"/>
     <use xlink:href="#LCDReg-30" transform="translate(96.044922 0)"/>
    </g>
   </g>
   <g id="text_15">
    <!-- 500 -->
    <g style="fill: #cccccc" transform="translate(587.905142 674.134482) scale(0.25 -0.25)">
     <use xlink:href="#LCDReg-35"/>
     <use xlink:href="#LCDReg-30" transform="translate(46.679688 0)"/>
     <use xlink:href="#LCDReg-30" transform="translate(95.996094 0)"/>
    </g>
   </g>
   <g id="text_16">
    <!-- 427 -->
    <g style="fill: #db7b2b" transform="translate(567.695994 207.307324) scale(0.25 -0.25)">
     <defs>
      <path id="LCDReg-37" d="M 1916 3753 
L 547 3753 
L 338 4009 
L 638 4266 
L 2509 4266 
L 1916 3753 
z
M 1753 2388 
L 1975 3659 
L 2578 4172 
L 2266 2388 
L 1963 2131 
L 1753 2388 
z
M 1369 213 
L 1663 1878 
L 1963 2134 
L 2175 1878 
L 1881 213 
L 1578 -44 
L 1369 213 
z
" transform="scale(0.015625)"/>
     </defs>
     <use xlink:href="#LCDReg-34"/>
     <use xlink:href="#LCDReg-32" transform="translate(46.679688 0)"/>
     <use xlink:href="#LCDReg-37" transform="translate(90.859375 0)"/>
    </g>
   </g>
   <g id="text_17">
    <!-- CO2 CONCENTRATION -->
    <g style="fill: #cccccc" transform="translate(247.74375 27.398438) scale(0.3 -0.3)">
     <defs>
      <path id="LCDReg-43" d="M 2613 3753 
L 1222 3753 
L 1000 4053 
L 1131 4153 
Q 1231 4231 1275 4247 
Q 1325 4266 1416 4266 
L 2700 4266 
L 2913 4009 
L 2613 3753 
z
M 1128 3688 
L 897 2391 
L 591 2134 
L 388 2391 
L 588 3528 
Q 613 3666 628 3700 
Q 653 3750 728 3813 
L 913 3959 
L 1128 3688 
z
M 578 591 
L 238 306 
L 128 438 
Q 75 500 75 588 
Q 75 625 100 759 
L 297 1878 
L 591 2134 
L 809 1878 
L 578 591 
z
M 650 513 
L 2038 513 
L 2250 256 
L 1950 0 
L 728 0 
Q 588 0 541 16 
Q 469 34 413 94 
L 309 213 
L 650 513 
z
" transform="scale(0.015625)"/>
      <path id="LCDReg-4f" d="M 1191 3753 
L 963 4053 
L 1106 4159 
Q 1194 4225 1225 4241 
Q 1272 4266 1366 4266 
L 2528 4266 
Q 2625 4266 2669 4231 
Q 2688 4219 2750 4159 
L 2856 4053 
L 2506 3753 
L 1191 3753 
z
M 669 513 
L 1944 513 
L 2169 213 
L 2022 100 
Q 1938 38 1883 19 
Q 1828 0 1728 0 
L 700 0 
Q 581 0 541 28 
Q 488 56 444 100 
L 338 213 
L 669 513 
z
M 2575 3663 
L 2925 3963 
L 3006 3869 
Q 3084 3778 3084 3688 
Q 3084 3656 3075 3600 
L 2863 2391 
L 2559 2134 
L 2350 2391 
L 2575 3663 
z
M 2028 575 
L 2259 1878 
L 2559 2134 
L 2772 1878 
L 2575 769 
Q 2547 600 2531 569 
Q 2513 528 2441 469 
L 2244 309 
L 2028 575 
z
M 1122 3663 
L 897 2391 
L 597 2134 
L 388 2391 
L 600 3600 
Q 625 3747 763 3869 
L 878 3963 
L 1122 3663 
z
M 578 575 
L 269 309 
L 128 469 
Q 72 534 72 588 
Q 72 606 100 769 
L 297 1878 
L 597 2134 
L 809 1878 
L 578 575 
z
" transform="scale(0.015625)"/>
      <path id="LCDReg-20" transform="scale(0.015625)"/>
      <path id="LCDReg-4e" d="M 1194 4053 
L 900 2388 
L 597 2131 
L 388 2388 
L 681 4053 
L 981 4309 
L 1194 4053 
z
M 1606 4053 
L 2316 2803 
L 2244 2391 
L 1959 2391 
L 1228 3650 
L 1300 4053 
L 1606 4053 
z
M 3156 4053 
L 2863 2388 
L 2559 2131 
L 2350 2388 
L 2644 4053 
L 2944 4309 
L 3156 4053 
z
M 809 1878 
L 516 213 
L 213 -44 
L 3 213 
L 297 1878 
L 597 2134 
L 809 1878 
z
M 2772 1878 
L 2478 213 
L 2178 -44 
L 1966 213 
L 2259 1878 
L 2559 2134 
L 2772 1878 
z
" transform="scale(0.015625)"/>
      <path id="LCDReg-45" d="M 2613 3753 
L 1231 3753 
L 803 4266 
L 2703 4266 
L 2916 4009 
L 2613 3753 
z
M 1131 3697 
L 913 2466 
L 613 2209 
L 400 2466 
L 709 4209 
L 1131 3697 
z
M 2281 1878 
L 900 1878 
L 691 2134 
L 991 2391 
L 2372 2391 
L 2584 2134 
L 2281 1878 
z
M 800 1816 
L 584 594 
L -19 81 
L 288 1816 
L 588 2072 
L 800 1816 
z
M 659 513 
L 2041 513 
L 2253 256 
L 1950 0 
L 50 0 
L 659 513 
z
" transform="scale(0.015625)"/>
      <path id="LCDReg-54" d="M 2634 3753 
L 669 3753 
L 459 4009 
L 759 4266 
L 2722 4266 
L 2934 4009 
L 2634 3753 
z
M 1884 3631 
L 1666 2391 
L 1366 2134 
L 1156 2391 
L 1375 3631 
L 1884 3631 
z
M 1575 1878 
L 1284 213 
L 981 -44 
L 772 213 
L 1066 1878 
L 1366 2134 
L 1575 1878 
z
" transform="scale(0.015625)"/>
      <path id="LCDReg-52" d="M 797 4266 
L 2503 4266 
Q 2606 4266 2638 4253 
Q 2697 4228 2747 4172 
L 2866 4041 
L 2522 3753 
L 1213 3753 
L 797 4266 
z
M 400 2466 
L 706 4200 
L 1128 3691 
L 913 2466 
L 613 2209 
L 400 2466 
z
M 981 2391 
L 2266 2391 
L 2478 2134 
L 2272 1950 
Q 2216 1900 2141 1884 
Q 2113 1878 1981 1878 
L 891 1878 
L 681 2134 
L 981 2391 
z
M 1272 1772 
L 2497 325 
L 2431 -44 
L 2128 -44 
L 853 1472 
L 906 1772 
L 1272 1772 
z
M 2359 2450 
L 2575 3666 
L 2934 3969 
L 3009 3884 
Q 3084 3803 3084 3700 
Q 3084 3653 3072 3584 
L 2903 2625 
Q 2881 2475 2784 2375 
L 2572 2194 
L 2359 2450 
z
M 797 1816 
L 516 213 
L 213 -44 
L 3 213 
L 281 1784 
L 588 2072 
L 797 1816 
z
" transform="scale(0.015625)"/>
      <path id="LCDReg-41" d="M 2475 3753 
L 1228 3753 
L 1003 4053 
L 1166 4188 
Q 1228 4238 1291 4256 
Q 1322 4266 1438 4266 
L 2484 4266 
Q 2606 4266 2644 4250 
Q 2691 4231 2728 4188 
L 2834 4066 
L 2475 3753 
z
M 2266 2391 
L 2478 2134 
L 2175 1878 
L 891 1878 
L 681 2134 
L 981 2391 
L 2266 2391 
z
M 1131 3700 
L 913 2466 
L 613 2209 
L 400 2466 
L 588 3534 
Q 616 3678 644 3725 
Q 675 3778 756 3847 
L 913 3981 
L 1131 3700 
z
M 797 1816 
L 516 213 
L 213 -44 
L 3 213 
L 284 1816 
L 588 2072 
L 797 1816 
z
M 2581 3700 
L 2897 3981 
L 3006 3847 
Q 3081 3759 3081 3684 
Q 3081 3634 3063 3534 
L 2872 2450 
L 2572 2194 
L 2359 2450 
L 2581 3700 
z
M 2247 1800 
L 2547 2056 
L 2756 1800 
L 2478 213 
L 2178 -44 
L 1966 213 
L 2247 1800 
z
" transform="scale(0.015625)"/>
      <path id="LCDReg-49" d="M 1194 4053 
L 900 2388 
L 597 2131 
L 388 2388 
L 681 4053 
L 991 4309 
L 1194 4053 
z
M 809 1878 
L 516 213 
L 222 -44 
L 3 213 
L 297 1878 
L 597 2134 
L 809 1878 
z
" transform="scale(0.015625)"/>
     </defs>
     <use xlink:href="#LCDReg-43"/>
     <use xlink:href="#LCDReg-4f" transform="translate(38.425781 0)"/>
     <use xlink:href="#LCDReg-32" transform="translate(87.742188 0)"/>
     <use xlink:href="#LCDReg-20" transform="translate(134.421875 0)"/>
     <use xlink:href="#LCDReg-43" transform="translate(159.421875 0)"/>
     <use xlink:href="#LCDReg-4f" transform="translate(197.847656 0)"/>
     <use xlink:href="#LCDReg-4e" transform="translate(247.164062 0)"/>
     <use xlink:href="#LCDReg-43" transform="translate(292.730469 0)"/>
     <use xlink:href="#LCDReg-45" transform="translate(335.40625 0)"/>
     <use xlink:href="#LCDReg-4e" transform="translate(378.082031 0)"/>
     <use xlink:href="#LCDReg-54" transform="translate(427.398438 0)"/>
     <use xlink:href="#LCDReg-52" transform="translate(470.074219 0)"/>
     <use xlink:href="#LCDReg-41" transform="translate(519.390625 0)"/>
     <use xlink:href="#LCDReg-54" transform="translate(564.457031 0)"/>
     <use xlink:href="#LCDReg-49" transform="translate(607.132812 0)"/>
     <use xlink:href="#LCDReg-4f" transform="translate(625.785156 0)"/>
     <use xlink:href="#LCDReg-4e" transform="translate(675.101562 0)"/>
    </g>
   </g>
   <g id="text_18">
    <!-- Atmospheric Carbon Dioxide Concentration -->
    <g style="fill: #cccccc" transform="translate(187.609375 52.014249) scale(0.2 -0.2)">
     <defs>
      <path id="LCDReg-74" d="M 2634 3753 
L 669 3753 
L 459 4009 
L 759 4266 
L 2722 4266 
L 2934 4009 
L 2634 3753 
z
M 1884 3631 
L 1666 2391 
L 1366 2134 
L 1156 2391 
L 1375 3631 
L 1884 3631 
z
M 1575 1878 
L 1284 213 
L 981 -44 
L 772 213 
L 1066 1878 
L 1366 2134 
L 1575 1878 
z
" transform="scale(0.015625)"/>
      <path id="LCDReg-6d" d="M 2484 3753 
L 1228 3753 
L 1000 4038 
L 1259 4266 
L 2634 4266 
L 2813 4038 
L 2484 3753 
z
M 2091 3641 
L 1913 2634 
L 1625 2388 
L 1422 2634 
L 1597 3641 
L 2091 3641 
z
M 1131 3706 
L 900 2391 
L 597 2134 
L 388 2391 
L 619 3706 
L 922 3963 
L 1131 3706 
z
M 809 1878 
L 516 213 
L 213 -44 
L 3 213 
L 297 1878 
L 597 2134 
L 809 1878 
z
M 2581 3706 
L 2884 3963 
L 3094 3706 
L 2863 2391 
L 2559 2134 
L 2350 2391 
L 2581 3706 
z
M 2259 1878 
L 2559 2134 
L 2772 1878 
L 2478 213 
L 2178 -44 
L 1966 213 
L 2259 1878 
z
" transform="scale(0.015625)"/>
      <path id="LCDReg-6f" d="M 1191 3753 
L 963 4053 
L 1106 4159 
Q 1194 4225 1225 4241 
Q 1272 4266 1366 4266 
L 2528 4266 
Q 2625 4266 2669 4231 
Q 2688 4219 2750 4159 
L 2856 4053 
L 2506 3753 
L 1191 3753 
z
M 669 513 
L 1944 513 
L 2169 213 
L 2022 100 
Q 1938 38 1883 19 
Q 1828 0 1728 0 
L 700 0 
Q 581 0 541 28 
Q 488 56 444 100 
L 338 213 
L 669 513 
z
M 2575 3663 
L 2925 3963 
L 3006 3869 
Q 3084 3778 3084 3688 
Q 3084 3656 3075 3600 
L 2863 2391 
L 2559 2134 
L 2350 2391 
L 2575 3663 
z
M 2028 575 
L 2259 1878 
L 2559 2134 
L 2772 1878 
L 2575 769 
Q 2547 600 2531 569 
Q 2513 528 2441 469 
L 2244 309 
L 2028 575 
z
M 1122 3663 
L 897 2391 
L 597 2134 
L 388 2391 
L 600 3600 
Q 625 3747 763 3869 
L 878 3963 
L 1122 3663 
z
M 578 575 
L 269 309 
L 128 469 
Q 72 534 72 588 
Q 72 606 100 769 
L 297 1878 
L 597 2134 
L 809 1878 
L 578 575 
z
" transform="scale(0.015625)"/>
      <path id="LCDReg-73" d="M 1225 3753 
L 988 4053 
L 1134 4166 
Q 1228 4241 1281 4256 
Q 1313 4266 1459 4266 
L 2672 4266 
L 2884 4009 
L 2584 3753 
L 1225 3753 
z
M 1131 3697 
L 909 2447 
L 603 2194 
L 513 2309 
Q 425 2422 425 2550 
Q 425 2600 434 2656 
L 588 3525 
Q 616 3672 647 3725 
Q 678 3778 788 3866 
L 916 3966 
L 1131 3697 
z
M 994 2391 
L 2100 2391 
Q 2238 2391 2284 2369 
Q 2344 2338 2409 2250 
L 2494 2134 
L 2188 1878 
L 1072 1878 
Q 941 1878 891 1909 
Q 828 1944 769 2022 
L 684 2134 
L 994 2391 
z
M 2031 572 
L 2247 1797 
L 2559 2053 
L 2672 1909 
Q 2741 1822 2741 1728 
Q 2741 1697 2728 1622 
L 2556 656 
Q 2534 525 2409 419 
L 2247 291 
L 2031 572 
z
M 2163 213 
L 2047 113 
Q 1966 44 1905 22 
Q 1844 0 1722 0 
L 469 0 
L 259 256 
L 559 513 
L 1944 513 
L 2163 213 
z
" transform="scale(0.015625)"/>
      <path id="LCDReg-70" d="M 2513 3753 
L 1228 3753 
L 809 4266 
L 2484 4266 
Q 2609 4266 2647 4250 
Q 2684 4238 2772 4147 
L 2863 4053 
L 2513 3753 
z
M 1128 3697 
L 913 2466 
L 613 2209 
L 400 2456 
L 706 4206 
L 1128 3697 
z
M 2359 2450 
L 2578 3681 
L 2919 3972 
L 2988 3894 
Q 3081 3794 3081 3669 
Q 3081 3634 3075 3594 
L 2916 2697 
Q 2888 2534 2866 2494 
Q 2831 2425 2769 2375 
L 2559 2200 
L 2359 2450 
z
M 981 2391 
L 2266 2391 
L 2469 2134 
L 2278 1978 
Q 2181 1903 2116 1891 
Q 2066 1878 1966 1878 
L 891 1878 
L 681 2134 
L 981 2391 
z
M 797 1816 
L 516 213 
L 213 -44 
L 3 213 
L 288 1816 
L 588 2072 
L 797 1816 
z
" transform="scale(0.015625)"/>
      <path id="LCDReg-68" d="M 2250 2391 
L 2459 2134 
L 2159 1878 
L 909 1878 
L 697 2134 
L 1000 2391 
L 2250 2391 
z
M 913 2466 
L 613 2209 
L 400 2466 
L 681 4053 
L 981 4309 
L 1194 4053 
L 913 2466 
z
M 797 1816 
L 516 213 
L 213 -44 
L 3 213 
L 288 1816 
L 588 2072 
L 797 1816 
z
M 2359 2450 
L 2644 4053 
L 2944 4309 
L 3156 4053 
L 2872 2450 
L 2572 2194 
L 2359 2450 
z
M 2247 1803 
L 2547 2059 
L 2759 1803 
L 2478 213 
L 2178 -44 
L 1966 213 
L 2247 1803 
z
" transform="scale(0.015625)"/>
      <path id="LCDReg-65" d="M 2613 3753 
L 1231 3753 
L 803 4266 
L 2703 4266 
L 2916 4009 
L 2613 3753 
z
M 1131 3697 
L 913 2466 
L 613 2209 
L 400 2466 
L 709 4209 
L 1131 3697 
z
M 2281 1878 
L 900 1878 
L 691 2134 
L 991 2391 
L 2372 2391 
L 2584 2134 
L 2281 1878 
z
M 800 1816 
L 584 594 
L -19 81 
L 288 1816 
L 588 2072 
L 800 1816 
z
M 659 513 
L 2041 513 
L 2253 256 
L 1950 0 
L 50 0 
L 659 513 
z
" transform="scale(0.015625)"/>
      <path id="LCDReg-72" d="M 797 4266 
L 2503 4266 
Q 2606 4266 2638 4253 
Q 2697 4228 2747 4172 
L 2866 4041 
L 2522 3753 
L 1213 3753 
L 797 4266 
z
M 400 2466 
L 706 4200 
L 1128 3691 
L 913 2466 
L 613 2209 
L 400 2466 
z
M 981 2391 
L 2266 2391 
L 2478 2134 
L 2272 1950 
Q 2216 1900 2141 1884 
Q 2113 1878 1981 1878 
L 891 1878 
L 681 2134 
L 981 2391 
z
M 1272 1772 
L 2497 325 
L 2431 -44 
L 2128 -44 
L 853 1472 
L 906 1772 
L 1272 1772 
z
M 2359 2450 
L 2575 3666 
L 2934 3969 
L 3009 3884 
Q 3084 3803 3084 3700 
Q 3084 3653 3072 3584 
L 2903 2625 
Q 2881 2475 2784 2375 
L 2572 2194 
L 2359 2450 
z
M 797 1816 
L 516 213 
L 213 -44 
L 3 213 
L 281 1784 
L 588 2072 
L 797 1816 
z
" transform="scale(0.015625)"/>
      <path id="LCDReg-69" d="M 1194 4053 
L 900 2388 
L 597 2131 
L 388 2388 
L 681 4053 
L 991 4309 
L 1194 4053 
z
M 809 1878 
L 516 213 
L 222 -44 
L 3 213 
L 297 1878 
L 597 2134 
L 809 1878 
z
" transform="scale(0.015625)"/>
      <path id="LCDReg-63" d="M 2613 3753 
L 1222 3753 
L 1000 4053 
L 1131 4153 
Q 1231 4231 1275 4247 
Q 1325 4266 1416 4266 
L 2700 4266 
L 2913 4009 
L 2613 3753 
z
M 1128 3688 
L 897 2391 
L 591 2134 
L 388 2391 
L 588 3528 
Q 613 3666 628 3700 
Q 653 3750 728 3813 
L 913 3959 
L 1128 3688 
z
M 578 591 
L 238 306 
L 128 438 
Q 75 500 75 588 
Q 75 625 100 759 
L 297 1878 
L 591 2134 
L 809 1878 
L 578 591 
z
M 650 513 
L 2038 513 
L 2250 256 
L 1950 0 
L 728 0 
Q 588 0 541 16 
Q 469 34 413 94 
L 309 213 
L 650 513 
z
" transform="scale(0.015625)"/>
      <path id="LCDReg-61" d="M 2475 3753 
L 1228 3753 
L 1003 4053 
L 1166 4188 
Q 1228 4238 1291 4256 
Q 1322 4266 1438 4266 
L 2484 4266 
Q 2606 4266 2644 4250 
Q 2691 4231 2728 4188 
L 2834 4066 
L 2475 3753 
z
M 2266 2391 
L 2478 2134 
L 2175 1878 
L 891 1878 
L 681 2134 
L 981 2391 
L 2266 2391 
z
M 1131 3700 
L 913 2466 
L 613 2209 
L 400 2466 
L 588 3534 
Q 616 3678 644 3725 
Q 675 3778 756 3847 
L 913 3981 
L 1131 3700 
z
M 797 1816 
L 516 213 
L 213 -44 
L 3 213 
L 284 1816 
L 588 2072 
L 797 1816 
z
M 2581 3700 
L 2897 3981 
L 3006 3847 
Q 3081 3759 3081 3684 
Q 3081 3634 3063 3534 
L 2872 2450 
L 2572 2194 
L 2359 2450 
L 2581 3700 
z
M 2247 1800 
L 2547 2056 
L 2756 1800 
L 2478 213 
L 2178 -44 
L 1966 213 
L 2247 1800 
z
" transform="scale(0.015625)"/>
      <path id="LCDReg-62" d="M 2513 3753 
L 1241 3753 
L 813 4266 
L 2553 4266 
Q 2650 4266 2684 4244 
Q 2747 4209 2794 4150 
L 2872 4053 
L 2513 3753 
z
M 1131 3694 
L 913 2466 
L 613 2209 
L 400 2466 
L 709 4206 
L 1131 3694 
z
M 2363 2450 
L 2575 3669 
L 2928 3966 
L 3025 3856 
Q 3088 3784 3088 3700 
Q 3088 3666 3072 3581 
L 2903 2622 
Q 2875 2441 2803 2375 
L 2584 2197 
L 2363 2450 
z
M 2181 1878 
L 894 1878 
L 681 2134 
L 984 2391 
L 2272 2391 
L 2481 2134 
L 2181 1878 
z
M 800 1816 
L 581 581 
L -22 66 
L 288 1816 
L 588 2072 
L 800 1816 
z
M 2028 566 
L 2247 1803 
L 2559 2063 
L 2653 1947 
Q 2744 1838 2744 1753 
Q 2744 1716 2731 1650 
L 2563 678 
Q 2534 525 2431 438 
L 2247 294 
L 2028 566 
z
M 653 513 
L 1941 513 
L 2169 213 
L 2063 122 
Q 1978 47 1920 23 
Q 1863 0 1769 0 
L 53 0 
L 653 513 
z
" transform="scale(0.015625)"/>
      <path id="LCDReg-6e" d="M 1194 4053 
L 900 2388 
L 597 2131 
L 388 2388 
L 681 4053 
L 981 4309 
L 1194 4053 
z
M 1606 4053 
L 2316 2803 
L 2244 2391 
L 1959 2391 
L 1228 3650 
L 1300 4053 
L 1606 4053 
z
M 3156 4053 
L 2863 2388 
L 2559 2131 
L 2350 2388 
L 2644 4053 
L 2944 4309 
L 3156 4053 
z
M 809 1878 
L 516 213 
L 213 -44 
L 3 213 
L 297 1878 
L 597 2134 
L 809 1878 
z
M 2772 1878 
L 2478 213 
L 2178 -44 
L 1966 213 
L 2259 1878 
L 2559 2134 
L 2772 1878 
z
" transform="scale(0.015625)"/>
      <path id="LCDReg-44" d="M 2534 3753 
L 1231 3753 
L 809 4266 
L 2513 4266 
Q 2622 4266 2666 4247 
Q 2734 4219 2794 4150 
L 2888 4041 
L 2534 3753 
z
M 1131 3694 
L 900 2388 
L 597 2131 
L 388 2388 
L 709 4206 
L 1131 3694 
z
M 2575 3659 
L 2944 3959 
L 3031 3847 
Q 3081 3781 3081 3688 
Q 3081 3634 3066 3544 
L 2863 2391 
L 2559 2134 
L 2350 2391 
L 2575 3659 
z
M 584 597 
L -19 88 
L 297 1878 
L 597 2134 
L 809 1878 
L 584 597 
z
M 2259 269 
L 2031 575 
L 2259 1878 
L 2559 2134 
L 2772 1878 
L 2569 728 
Q 2544 594 2525 550 
Q 2497 494 2444 441 
L 2259 269 
z
M 634 513 
L 1931 513 
L 2191 197 
L 2081 113 
Q 1938 3 1750 0 
L 31 0 
L 634 513 
z
" transform="scale(0.015625)"/>
      <path id="LCDReg-78" d="M 884 4266 
L 1450 2606 
L 1372 2172 
L 1063 2172 
L 475 3863 
L 547 4266 
L 884 4266 
z
M 3022 4266 
L 2941 3803 
L 1875 2172 
L 1478 2172 
L 1556 2606 
L 2631 4266 
L 3022 4266 
z
M 1353 2066 
L 1278 1631 
L 206 0 
L -206 0 
L -134 403 
L 953 2066 
L 1353 2066 
z
M 1784 2066 
L 2341 403 
L 2269 0 
L 1938 0 
L 1384 1631 
L 1459 2066 
L 1784 2066 
z
" transform="scale(0.015625)"/>
      <path id="LCDReg-64" d="M 2534 3753 
L 1231 3753 
L 809 4266 
L 2513 4266 
Q 2622 4266 2666 4247 
Q 2734 4219 2794 4150 
L 2888 4041 
L 2534 3753 
z
M 1131 3694 
L 900 2388 
L 597 2131 
L 388 2388 
L 709 4206 
L 1131 3694 
z
M 2575 3659 
L 2944 3959 
L 3031 3847 
Q 3081 3781 3081 3688 
Q 3081 3634 3066 3544 
L 2863 2391 
L 2559 2134 
L 2350 2391 
L 2575 3659 
z
M 584 597 
L -19 88 
L 297 1878 
L 597 2134 
L 809 1878 
L 584 597 
z
M 2259 269 
L 2031 575 
L 2259 1878 
L 2559 2134 
L 2772 1878 
L 2569 728 
Q 2544 594 2525 550 
Q 2497 494 2444 441 
L 2259 269 
z
M 634 513 
L 1931 513 
L 2191 197 
L 2081 113 
Q 1938 3 1750 0 
L 31 0 
L 634 513 
z
" transform="scale(0.015625)"/>
     </defs>
     <use xlink:href="#LCDReg-41"/>
     <use xlink:href="#LCDReg-74" transform="translate(45.066406 0)"/>
     <use xlink:href="#LCDReg-6d" transform="translate(87.742188 0)"/>
     <use xlink:href="#LCDReg-6f" transform="translate(137.058594 0)"/>
     <use xlink:href="#LCDReg-73" transform="translate(186.375 0)"/>
     <use xlink:href="#LCDReg-70" transform="translate(235.691406 0)"/>
     <use xlink:href="#LCDReg-68" transform="translate(283.689453 0)"/>
     <use xlink:href="#LCDReg-65" transform="translate(333.005859 0)"/>
     <use xlink:href="#LCDReg-72" transform="translate(375.681641 0)"/>
     <use xlink:href="#LCDReg-69" transform="translate(420.748047 0)"/>
     <use xlink:href="#LCDReg-63" transform="translate(439.400391 0)"/>
     <use xlink:href="#LCDReg-20" transform="translate(482.076172 0)"/>
     <use xlink:href="#LCDReg-43" transform="translate(507.076172 0)"/>
     <use xlink:href="#LCDReg-61" transform="translate(549.751953 0)"/>
     <use xlink:href="#LCDReg-72" transform="translate(599.068359 0)"/>
     <use xlink:href="#LCDReg-62" transform="translate(648.384766 0)"/>
     <use xlink:href="#LCDReg-6f" transform="translate(697.701172 0)"/>
     <use xlink:href="#LCDReg-6e" transform="translate(747.017578 0)"/>
     <use xlink:href="#LCDReg-20" transform="translate(796.333984 0)"/>
     <use xlink:href="#LCDReg-44" transform="translate(821.333984 0)"/>
     <use xlink:href="#LCDReg-69" transform="translate(870.650391 0)"/>
     <use xlink:href="#LCDReg-6f" transform="translate(889.302734 0)"/>
     <use xlink:href="#LCDReg-78" transform="translate(935.244141 0)"/>
     <use xlink:href="#LCDReg-69" transform="translate(979.238281 0)"/>
     <use xlink:href="#LCDReg-64" transform="translate(997.890625 0)"/>
     <use xlink:href="#LCDReg-65" transform="translate(1047.207031 0)"/>
     <use xlink:href="#LCDReg-20" transform="translate(1089.882812 0)"/>
     <use xlink:href="#LCDReg-43" transform="translate(1114.882812 0)"/>
     <use xlink:href="#LCDReg-6f" transform="translate(1157.558594 0)"/>
     <use xlink:href="#LCDReg-6e" transform="translate(1206.875 0)"/>
     <use xlink:href="#LCDReg-63" transform="translate(1256.191406 0)"/>
     <use xlink:href="#LCDReg-65" transform="translate(1298.867188 0)"/>
     <use xlink:href="#LCDReg-6e" transform="translate(1341.542969 0)"/>
     <use xlink:href="#LCDReg-74" transform="translate(1390.859375 0)"/>
     <use xlink:href="#LCDReg-72" transform="translate(1433.535156 0)"/>
     <use xlink:href="#LCDReg-61" transform="translate(1478.726562 0)"/>
     <use xlink:href="#LCDReg-74" transform="translate(1528.042969 0)"/>
     <use xlink:href="#LCDReg-69" transform="translate(1570.71875 0)"/>
     <use xlink:href="#LCDReg-6f" transform="translate(1589.371094 0)"/>
     <use xlink:href="#LCDReg-6e" transform="translate(1638.6875 0)"/>
    </g>
   </g>
   <g id="text_19">
    <!-- Sources: Hansen et al. (2008) | IPPC AR5 (2014) | NOAA | Yale Environment 360 -->
    <g style="fill: #666666" transform="translate(155.643437 478.20446) scale(0.13 -0.13)">
     <defs>
      <path id="LCDReg-53" d="M 1225 3753 
L 988 4053 
L 1134 4166 
Q 1228 4241 1281 4256 
Q 1313 4266 1459 4266 
L 2672 4266 
L 2884 4009 
L 2584 3753 
L 1225 3753 
z
M 1131 3697 
L 909 2447 
L 603 2194 
L 513 2309 
Q 425 2422 425 2550 
Q 425 2600 434 2656 
L 588 3525 
Q 616 3672 647 3725 
Q 678 3778 788 3866 
L 916 3966 
L 1131 3697 
z
M 994 2391 
L 2100 2391 
Q 2238 2391 2284 2369 
Q 2344 2338 2409 2250 
L 2494 2134 
L 2188 1878 
L 1072 1878 
Q 941 1878 891 1909 
Q 828 1944 769 2022 
L 684 2134 
L 994 2391 
z
M 2031 572 
L 2247 1797 
L 2559 2053 
L 2672 1909 
Q 2741 1822 2741 1728 
Q 2741 1697 2728 1622 
L 2556 656 
Q 2534 525 2409 419 
L 2247 291 
L 2031 572 
z
M 2163 213 
L 2047 113 
Q 1966 44 1905 22 
Q 1844 0 1722 0 
L 469 0 
L 259 256 
L 559 513 
L 1944 513 
L 2163 213 
z
" transform="scale(0.015625)"/>
      <path id="LCDReg-75" d="M 578 578 
L 234 300 
L 159 388 
Q 75 484 75 578 
Q 75 625 91 722 
L 297 1878 
L 597 2134 
L 809 1878 
L 578 578 
z
M 2266 291 
L 2028 575 
L 2259 1878 
L 2559 2134 
L 2772 1878 
L 2559 678 
Q 2541 575 2516 534 
Q 2500 503 2403 416 
L 2266 291 
z
M 316 213 
L 669 513 
L 1931 513 
L 2175 213 
L 2034 103 
Q 1944 34 1886 17 
Q 1828 0 1694 0 
L 719 0 
Q 566 0 509 28 
Q 469 47 413 103 
L 316 213 
z
M 1191 4053 
L 900 2388 
L 597 2131 
L 388 2388 
L 681 4053 
L 981 4309 
L 1191 4053 
z
M 3153 4053 
L 2863 2388 
L 2559 2131 
L 2350 2388 
L 2644 4053 
L 2944 4309 
L 3153 4053 
z
" transform="scale(0.015625)"/>
      <path id="LCDReg-3a" d="M 894 1878 
L 803 1363 
L 291 1363 
L 381 1878 
L 894 1878 
z
M 653 513 
L 563 0 
L 50 0 
L 141 513 
L 653 513 
z
" transform="scale(0.015625)"/>
      <path id="LCDReg-48" d="M 2250 2391 
L 2459 2134 
L 2159 1878 
L 909 1878 
L 697 2134 
L 1000 2391 
L 2250 2391 
z
M 913 2466 
L 613 2209 
L 400 2466 
L 681 4053 
L 981 4309 
L 1194 4053 
L 913 2466 
z
M 797 1816 
L 516 213 
L 213 -44 
L 3 213 
L 288 1816 
L 588 2072 
L 797 1816 
z
M 2359 2450 
L 2644 4053 
L 2944 4309 
L 3156 4053 
L 2872 2450 
L 2572 2194 
L 2359 2450 
z
M 2247 1803 
L 2547 2059 
L 2759 1803 
L 2478 213 
L 2178 -44 
L 1966 213 
L 2247 1803 
z
" transform="scale(0.015625)"/>
      <path id="LCDReg-6c" d="M 581 588 
L -22 75 
L 297 1878 
L 597 2134 
L 809 1878 
L 581 588 
z
M 644 513 
L 2019 513 
L 2228 256 
L 1928 0 
L 41 0 
L 644 513 
z
M 1191 4053 
L 900 2388 
L 597 2131 
L 388 2388 
L 678 4053 
L 981 4309 
L 1191 4053 
z
" transform="scale(0.015625)"/>
      <path id="LCDReg-2e" d="M 653 513 
L 563 0 
L 50 0 
L 141 513 
L 653 513 
z
" transform="scale(0.015625)"/>
      <path id="LCDReg-28" d="M 1631 3753 
L 1241 3753 
L 997 4053 
L 1116 4150 
Q 1200 4228 1228 4241 
Q 1278 4266 1331 4266 
L 1722 4266 
L 1953 4003 
L 1631 3753 
z
M 1131 3697 
L 900 2391 
L 597 2134 
L 388 2391 
L 591 3534 
Q 613 3659 638 3713 
Q 659 3756 728 3813 
L 925 3969 
L 1131 3697 
z
M 809 1878 
L 581 581 
L 234 294 
L 144 416 
Q 78 506 78 594 
Q 78 634 84 678 
L 297 1878 
L 597 2134 
L 809 1878 
z
M 669 513 
L 1059 513 
L 1284 250 
L 969 0 
L 631 0 
Q 491 -3 394 106 
L 313 213 
L 669 513 
z
" transform="scale(0.015625)"/>
      <path id="LCDReg-29" d="M 78 513 
L 469 513 
L 713 213 
L 594 116 
Q 506 38 472 19 
Q 438 0 378 0 
L -13 0 
L -244 263 
L 78 513 
z
M 578 572 
L 809 1878 
L 1109 2134 
L 1322 1878 
L 1119 734 
Q 1097 603 1072 556 
Q 1050 513 981 453 
L 784 297 
L 578 572 
z
M 900 2391 
L 1128 3688 
L 1475 3975 
L 1566 3850 
Q 1631 3759 1631 3678 
Q 1631 3638 1622 3588 
L 1413 2391 
L 1109 2134 
L 900 2391 
z
M 1041 3753 
L 647 3753 
L 425 4016 
L 738 4266 
L 1078 4266 
Q 1216 4269 1313 4159 
L 1397 4053 
L 1041 3753 
z
" transform="scale(0.015625)"/>
      <path id="LCDReg-7c" d="M 1441 4266 
L 1866 4266 
L 1866 -1066 
L 1441 -1066 
L 1441 4266 
z
" transform="scale(0.015625)"/>
      <path id="LCDReg-31" d="M 1059 3753 
L 644 3753 
L 434 4009 
L 734 4266 
L 1666 4266 
L 1059 3753 
z
M 900 2388 
L 1122 3659 
L 1725 4169 
L 1409 2388 
L 1109 2131 
L 900 2388 
z
M 516 213 
L 809 1878 
L 1109 2134 
L 1319 1878 
L 1028 213 
L 725 -44 
L 516 213 
z
" transform="scale(0.015625)"/>
      <path id="LCDReg-59" d="M 822 2438 
L 544 2203 
L 444 2319 
Q 341 2438 341 2556 
Q 341 2613 353 2681 
L 594 4053 
L 897 4309 
L 1106 4053 
L 822 2438 
z
M 2788 2450 
L 2488 2197 
L 2275 2453 
L 2556 4053 
L 2859 4309 
L 3069 4053 
L 2788 2450 
z
M 916 2391 
L 2191 2391 
L 2400 2134 
L 2100 1878 
L 1113 1878 
Q 916 1878 872 1897 
Q 847 1909 747 2009 
L 613 2134 
L 916 2391 
z
M 2672 1788 
L 2478 691 
Q 2447 525 2325 422 
L 2169 294 
L 1941 566 
L 2159 1788 
L 2459 2044 
L 2672 1788 
z
M 1834 513 
L 2075 213 
L 1909 78 
Q 1847 28 1789 14 
Q 1731 0 1591 0 
L 391 0 
L 181 256 
L 481 513 
L 1834 513 
z
" transform="scale(0.015625)"/>
      <path id="LCDReg-76" d="M 1194 4053 
L 900 2388 
L 597 2131 
L 388 2388 
L 681 4053 
L 981 4309 
L 1194 4053 
z
M 3156 4053 
L 2863 2388 
L 2559 2131 
L 2350 2388 
L 2644 4053 
L 2944 4309 
L 3156 4053 
z
M 809 1878 
L 516 213 
L 213 -44 
L 3 213 
L 297 1878 
L 597 2134 
L 809 1878 
z
M 2381 1756 
L 650 319 
L 784 1094 
L 2059 2134 
L 2450 2134 
L 2381 1756 
z
" transform="scale(0.015625)"/>
     </defs>
     <use xlink:href="#LCDReg-53"/>
     <use xlink:href="#LCDReg-6f" transform="translate(49.316406 0)"/>
     <use xlink:href="#LCDReg-75" transform="translate(98.632812 0)"/>
     <use xlink:href="#LCDReg-72" transform="translate(147.949219 0)"/>
     <use xlink:href="#LCDReg-63" transform="translate(193.140625 0)"/>
     <use xlink:href="#LCDReg-65" transform="translate(235.816406 0)"/>
     <use xlink:href="#LCDReg-73" transform="translate(278.492188 0)"/>
     <use xlink:href="#LCDReg-3a" transform="translate(327.808594 0)"/>
     <use xlink:href="#LCDReg-20" transform="translate(349.146484 0)"/>
     <use xlink:href="#LCDReg-48" transform="translate(374.146484 0)"/>
     <use xlink:href="#LCDReg-61" transform="translate(423.462891 0)"/>
     <use xlink:href="#LCDReg-6e" transform="translate(472.779297 0)"/>
     <use xlink:href="#LCDReg-73" transform="translate(522.095703 0)"/>
     <use xlink:href="#LCDReg-65" transform="translate(571.412109 0)"/>
     <use xlink:href="#LCDReg-6e" transform="translate(614.087891 0)"/>
     <use xlink:href="#LCDReg-20" transform="translate(663.404297 0)"/>
     <use xlink:href="#LCDReg-65" transform="translate(688.404297 0)"/>
     <use xlink:href="#LCDReg-74" transform="translate(729.705078 0)"/>
     <use xlink:href="#LCDReg-20" transform="translate(772.380859 0)"/>
     <use xlink:href="#LCDReg-61" transform="translate(797.380859 0)"/>
     <use xlink:href="#LCDReg-6c" transform="translate(846.697266 0)"/>
     <use xlink:href="#LCDReg-2e" transform="translate(886.6875 0)"/>
     <use xlink:href="#LCDReg-20" transform="translate(908.025391 0)"/>
     <use xlink:href="#LCDReg-28" transform="translate(933.025391 0)"/>
     <use xlink:href="#LCDReg-32" transform="translate(959.685547 0)"/>
     <use xlink:href="#LCDReg-30" transform="translate(1006.365234 0)"/>
     <use xlink:href="#LCDReg-30" transform="translate(1055.681641 0)"/>
     <use xlink:href="#LCDReg-38" transform="translate(1104.998047 0)"/>
     <use xlink:href="#LCDReg-29" transform="translate(1154.363281 0)"/>
     <use xlink:href="#LCDReg-20" transform="translate(1181.023438 0)"/>
     <use xlink:href="#LCDReg-7c" transform="translate(1206.023438 0)"/>
     <use xlink:href="#LCDReg-20" transform="translate(1256.023438 0)"/>
     <use xlink:href="#LCDReg-49" transform="translate(1281.023438 0)"/>
     <use xlink:href="#LCDReg-50" transform="translate(1299.675781 0)"/>
     <use xlink:href="#LCDReg-50" transform="translate(1347.673828 0)"/>
     <use xlink:href="#LCDReg-43" transform="translate(1395.671875 0)"/>
     <use xlink:href="#LCDReg-20" transform="translate(1438.347656 0)"/>
     <use xlink:href="#LCDReg-41" transform="translate(1463.347656 0)"/>
     <use xlink:href="#LCDReg-52" transform="translate(1512.664062 0)"/>
     <use xlink:href="#LCDReg-35" transform="translate(1561.980469 0)"/>
     <use xlink:href="#LCDReg-20" transform="translate(1608.660156 0)"/>
     <use xlink:href="#LCDReg-28" transform="translate(1633.660156 0)"/>
     <use xlink:href="#LCDReg-32" transform="translate(1660.320312 0)"/>
     <use xlink:href="#LCDReg-30" transform="translate(1707 0)"/>
     <use xlink:href="#LCDReg-31" transform="translate(1752.066406 0)"/>
     <use xlink:href="#LCDReg-34" transform="translate(1776.285156 0)"/>
     <use xlink:href="#LCDReg-29" transform="translate(1822.964844 0)"/>
     <use xlink:href="#LCDReg-20" transform="translate(1849.625 0)"/>
     <use xlink:href="#LCDReg-7c" transform="translate(1874.625 0)"/>
     <use xlink:href="#LCDReg-20" transform="translate(1924.625 0)"/>
     <use xlink:href="#LCDReg-4e" transform="translate(1949.625 0)"/>
     <use xlink:href="#LCDReg-4f" transform="translate(1995.191406 0)"/>
     <use xlink:href="#LCDReg-41" transform="translate(2040.632812 0)"/>
     <use xlink:href="#LCDReg-41" transform="translate(2089.949219 0)"/>
     <use xlink:href="#LCDReg-20" transform="translate(2139.265625 0)"/>
     <use xlink:href="#LCDReg-7c" transform="translate(2164.265625 0)"/>
     <use xlink:href="#LCDReg-20" transform="translate(2214.265625 0)"/>
     <use xlink:href="#LCDReg-59" transform="translate(2239.265625 0)"/>
     <use xlink:href="#LCDReg-61" transform="translate(2283.513672 0)"/>
     <use xlink:href="#LCDReg-6c" transform="translate(2332.830078 0)"/>
     <use xlink:href="#LCDReg-65" transform="translate(2372.820312 0)"/>
     <use xlink:href="#LCDReg-20" transform="translate(2415.496094 0)"/>
     <use xlink:href="#LCDReg-45" transform="translate(2440.496094 0)"/>
     <use xlink:href="#LCDReg-6e" transform="translate(2483.171875 0)"/>
     <use xlink:href="#LCDReg-76" transform="translate(2529.238281 0)"/>
     <use xlink:href="#LCDReg-69" transform="translate(2577.236328 0)"/>
     <use xlink:href="#LCDReg-72" transform="translate(2595.888672 0)"/>
     <use xlink:href="#LCDReg-6f" transform="translate(2641.080078 0)"/>
     <use xlink:href="#LCDReg-6e" transform="translate(2690.396484 0)"/>
     <use xlink:href="#LCDReg-6d" transform="translate(2739.712891 0)"/>
     <use xlink:href="#LCDReg-65" transform="translate(2789.029297 0)"/>
     <use xlink:href="#LCDReg-6e" transform="translate(2831.705078 0)"/>
     <use xlink:href="#LCDReg-74" transform="translate(2881.021484 0)"/>
     <use xlink:href="#LCDReg-20" transform="translate(2923.697266 0)"/>
     <use xlink:href="#LCDReg-33" transform="translate(2948.697266 0)"/>
     <use xlink:href="#LCDReg-36" transform="translate(2991.373047 0)"/>
     <use xlink:href="#LCDReg-30" transform="translate(3039.371094 0)"/>
    </g>
    <!-- Data: NOAA.gov -->
    <g style="fill: #666666" transform="translate(318.619766 490.87296) scale(0.13 -0.13)">
     <defs>
      <path id="LCDReg-67" d="M 2594 3753 
L 1244 3753 
L 1006 4041 
L 1113 4131 
Q 1169 4184 1278 4231 
Q 1347 4266 1488 4266 
L 2681 4266 
L 2894 4009 
L 2594 3753 
z
M 1131 3700 
L 900 2391 
L 600 2134 
L 388 2391 
L 591 3538 
Q 616 3669 656 3722 
Q 675 3747 763 3825 
L 919 3963 
L 1131 3700 
z
M 581 578 
L 228 300 
L 150 384 
Q 72 469 72 559 
Q 72 594 94 713 
L 297 1878 
L 600 2134 
L 809 1878 
L 581 578 
z
M 2813 2391 
L 2209 1878 
L 1800 1878 
L 1591 2134 
L 1891 2391 
L 2813 2391 
z
M 2028 553 
L 2241 1763 
L 2844 2272 
L 2563 678 
Q 2538 541 2509 500 
Q 2475 447 2406 394 
L 2259 275 
L 2028 553 
z
M 663 513 
L 1913 513 
L 2175 203 
L 2006 72 
Q 1947 25 1903 12 
Q 1859 0 1750 0 
L 741 0 
Q 481 -3 400 91 
L 303 213 
L 663 513 
z
" transform="scale(0.015625)"/>
     </defs>
     <use xlink:href="#LCDReg-44"/>
     <use xlink:href="#LCDReg-61" transform="translate(49.316406 0)"/>
     <use xlink:href="#LCDReg-74" transform="translate(98.632812 0)"/>
     <use xlink:href="#LCDReg-61" transform="translate(137.183594 0)"/>
     <use xlink:href="#LCDReg-3a" transform="translate(186.5 0)"/>
     <use xlink:href="#LCDReg-20" transform="translate(207.837891 0)"/>
     <use xlink:href="#LCDReg-4e" transform="translate(232.837891 0)"/>
     <use xlink:href="#LCDReg-4f" transform="translate(278.404297 0)"/>
     <use xlink:href="#LCDReg-41" transform="translate(323.845703 0)"/>
     <use xlink:href="#LCDReg-41" transform="translate(373.162109 0)"/>
     <use xlink:href="#LCDReg-2e" transform="translate(418.228516 0)"/>
     <use xlink:href="#LCDReg-67" transform="translate(439.566406 0)"/>
     <use xlink:href="#LCDReg-6f" transform="translate(487.564453 0)"/>
     <use xlink:href="#LCDReg-76" transform="translate(533.255859 0)"/>
    </g>
   </g>
   <g id="patch_8">
    <path d="M 356.4 457.178272 
C 359.486964 457.178272 362.44791 455.885056 364.630723 453.583438 
C 366.813536 451.281821 368.04 448.15972 368.04 444.904741 
C 368.04 441.649763 366.813536 438.527662 364.630723 436.226044 
C 362.44791 433.924427 359.486964 432.63121 356.4 432.63121 
C 353.313036 432.63121 350.35209 433.924427 348.169277 436.226044 
C 345.986464 438.527662 344.76 441.649763 344.76 444.904741 
C 344.76 448.15972 345.986464 451.281821 348.169277 453.583438 
C 350.35209 455.885056 353.313036 457.178272 356.4 457.178272 
z
" clip-path="url(#pda68b2e44d)" style="stroke: #ffffff; stroke-width: 3; stroke-linejoin: miter"/>
   </g>
  </g>
 </g>
 <defs>
  <clipPath id="pda68b2e44d">
   <rect x="7.2" y="76.698811" width="698.4" height="589.129488"/>
  </clipPath>
 </defs>
</svg>
