<?xml version="1.0" encoding="utf-8" standalone="no"?>
<!DOCTYPE svg PUBLIC "-//W3C//DTD SVG 1.1//EN"
  "http://www.w3.org/Graphics/SVG/1.1/DTD/svg11.dtd">
<svg xmlns:xlink="http://www.w3.org/1999/xlink" width="640.8pt" height="424.660594pt" viewBox="0 0 640.8 424.660594" xmlns="http://www.w3.org/2000/svg" version="1.1">
 <metadata>
  <rdf:RDF xmlns:dc="http://purl.org/dc/elements/1.1/" xmlns:cc="http://creativecommons.org/ns#" xmlns:rdf="http://www.w3.org/1999/02/22-rdf-syntax-ns#">
   <cc:Work>
    <dc:type rdf:resource="http://purl.org/dc/dcmitype/StillImage"/>
    <dc:date>2026-01-18T17:31:01.707241</dc:date>
    <dc:format>image/svg+xml</dc:format>
    <dc:creator>
     <cc:Agent>
      <dc:title>Matplotlib v3.10.7, https://matplotlib.org/</dc:title>
     </cc:Agent>
    </dc:creator>
   </cc:Work>
  </rdf:RDF>
 </metadata>
 <defs>
  <style type="text/css">*{stroke-linejoin: round; stroke-linecap: butt}</style>
 </defs>
 <g id="figure_1">
  <g id="patch_1">
   <path d="M 0 424.660594 
L 640.8 424.660594 
L 640.8 0 
L 0 0 
z
"/>
  </g>
  <g id="axes_1">
   <g id="patch_2">
    <path d="M 570.96 373.470187 
C 570.96 304.699647 544.543769 238.675423 497.572675 190.047307 
C 450.601581 141.419192 386.827158 114.071062 320.4 114.071062 
C 253.972842 114.071062 190.198419 141.419192 143.227325 190.047307 
C 96.256231 238.675423 69.84 304.699647 69.84 373.470187 
L 122.04 373.470187 
C 122.04 319.026843 142.95285 266.757665 180.138299 228.260407 
C 217.323748 189.763149 267.811834 168.112547 320.4 168.112547 
C 372.988166 168.112547 423.476252 189.763149 460.661701 228.260407 
C 497.84715 266.757665 518.76 319.026843 518.76 373.470187 
z
" clip-path="url(#p170d8ab008)" style="stroke: #666666; stroke-width: 2; stroke-linejoin: miter"/>
   </g>
   <g id="patch_3">
    <path d="M 195.12 148.823956 
C 157.032902 171.589289 125.398271 204.339911 103.408675 243.770625 
C 81.419079 283.201339 69.84 327.939521 69.84 373.470187 
L 122.04 373.470187 
C 122.04 337.425076 131.206771 302.007349 148.615201 270.791367 
C 166.023631 239.575385 191.067714 213.64781 221.22 195.625254 
z
" clip-path="url(#p170d8ab008)" style="fill: #2dc937; opacity: 0.7"/>
   </g>
   <g id="patch_4">
    <path d="M 320.4 114.071062 
C 298.503341 114.071062 276.700849 117.042674 255.5503 122.909873 
C 234.399751 128.777073 214.083063 137.489396 195.12 148.823956 
L 221.22 195.625254 
C 236.232425 186.652061 252.31647 179.754805 269.060654 175.109939 
C 285.804839 170.465073 303.065145 168.112547 320.4 168.112547 
z
" clip-path="url(#p170d8ab008)" style="fill: #e7b416; opacity: 0.8"/>
   </g>
   <g id="patch_5">
    <path d="M 445.68 148.823956 
C 426.716937 137.489396 406.400249 128.777073 385.2497 122.909873 
C 364.099151 117.042674 342.296659 114.071062 320.4 114.071062 
L 320.4 168.112547 
C 337.734855 168.112547 354.995161 170.465073 371.739346 175.109939 
C 388.48353 179.754805 404.567575 186.652061 419.58 195.625254 
z
" clip-path="url(#p170d8ab008)" style="fill: #db7b2b; opacity: 0.8"/>
   </g>
   <g id="patch_6">
    <path d="M 570.96 373.470187 
C 570.96 327.939521 559.380921 283.201339 537.391325 243.770625 
C 515.401729 204.339911 483.767098 171.589289 445.68 148.823956 
L 419.58 195.625254 
C 449.732286 213.64781 474.776369 239.575385 492.184799 270.791367 
C 509.593229 302.007349 518.76 337.425076 518.76 373.470187 
z
" clip-path="url(#p170d8ab008)" style="fill: #cc3232; opacity: 0.8"/>
   </g>
   <g id="text_1">
    <!-- °C -->
    <g style="fill: #cccccc" transform="translate(301.0875 271.239078) scale(0.5 -0.5)">
     <defs>
      <path id="LCDReg-b0" d="M 1766 2984 
L 1916 3847 
L 2153 4053 
L 2231 3988 
Q 2275 3950 2275 3863 
Q 2275 3844 2269 3800 
L 2131 3031 
Q 2116 2925 2028 2844 
L 1928 2778 
L 1766 2984 
z
M 750 2984 
L 513 2778 
L 434 2844 
Q 394 2878 394 2975 
Q 394 3000 400 3031 
L 534 3800 
Q 550 3906 638 3988 
L 738 4053 
L 900 3847 
L 750 2984 
z
M 2116 4103 
L 1866 3906 
L 975 3906 
L 797 4103 
L 894 4191 
Q 991 4266 1075 4266 
L 1891 4266 
Q 1978 4266 2047 4191 
L 2116 4103 
z
M 553 2725 
L 800 2922 
L 1691 2922 
L 1872 2725 
L 1772 2638 
Q 1675 2563 1591 2563 
L 775 2563 
Q 691 2563 622 2638 
L 553 2725 
z
" transform="scale(0.015625)"/>
      <path id="LCDReg-43" d="M 2613 3753 
L 1222 3753 
L 1000 4053 
L 1131 4153 
Q 1231 4231 1275 4247 
Q 1325 4266 1416 4266 
L 2700 4266 
L 2913 4009 
L 2613 3753 
z
M 1128 3688 
L 897 2391 
L 591 2134 
L 388 2391 
L 588 3528 
Q 613 3666 628 3700 
Q 653 3750 728 3813 
L 913 3959 
L 1128 3688 
z
M 578 591 
L 238 306 
L 128 438 
Q 75 500 75 588 
Q 75 625 100 759 
L 297 1878 
L 591 2134 
L 809 1878 
L 578 591 
z
M 650 513 
L 2038 513 
L 2250 256 
L 1950 0 
L 728 0 
Q 588 0 541 16 
Q 469 34 413 94 
L 309 213 
L 650 513 
z
" transform="scale(0.015625)"/>
     </defs>
     <use xlink:href="#LCDReg-b0"/>
     <use xlink:href="#LCDReg-43" transform="translate(34.570312 0)"/>
    </g>
   </g>
   <g id="line2d_1">
    <path d="M 90.72 373.470187 
L 48.96 373.470187 
" clip-path="url(#p170d8ab008)" style="fill: none; stroke: #ffffff; stroke-width: 1.5; stroke-linecap: square"/>
   </g>
   <g id="line2d_2">
    <path d="M 121.491285 254.578922 
L 85.326064 232.962328 
" clip-path="url(#p170d8ab008)" style="fill: none; stroke: #ffffff; stroke-width: 1.5; stroke-linecap: square"/>
   </g>
   <g id="line2d_3">
    <path d="M 205.56 167.544475 
L 184.68 130.103436 
" clip-path="url(#p170d8ab008)" style="fill: none; stroke: #ffffff; stroke-width: 1.5; stroke-linecap: square"/>
   </g>
   <g id="line2d_4">
    <path d="M 320.4 135.687656 
L 320.4 92.454469 
" clip-path="url(#p170d8ab008)" style="fill: none; stroke: #ffffff; stroke-width: 3; stroke-linecap: square"/>
   </g>
   <g id="line2d_5">
    <path d="M 435.24 167.544475 
L 456.12 130.103436 
" clip-path="url(#p170d8ab008)" style="fill: none; stroke: #ffffff; stroke-width: 3; stroke-linecap: square"/>
   </g>
   <g id="line2d_6">
    <path d="M 519.308715 254.578922 
L 555.473936 232.962328 
" clip-path="url(#p170d8ab008)" style="fill: none; stroke: #ffffff; stroke-width: 1.5; stroke-linecap: square"/>
   </g>
   <g id="line2d_7">
    <path d="M 550.08 373.470187 
L 591.84 373.470187 
" clip-path="url(#p170d8ab008)" style="fill: none; stroke: #ffffff; stroke-width: 1.5; stroke-linecap: square"/>
   </g>
   <g id="patch_7">
    <path d="M 243.129162 172.651286 
L 265.40444 186.733419 
L 250.953234 192.693178 
L 320.496988 373.430189 
L 320.303012 373.510186 
L 250.759258 192.773175 
L 236.308052 198.732933 
z
" clip-path="url(#p170d8ab008)" style="fill: #ffffff; stroke: #ffffff; stroke-width: 4; stroke-linejoin: miter"/>
   </g>
   <g id="line2d_8">
    <path d="M 235.402078 152.569396 
L 219.947911 112.405616 
" clip-path="url(#p170d8ab008)" style="fill: none; stroke: #ffffff; stroke-width: 3; stroke-linecap: square"/>
   </g>
   <g id="text_2">
    <!-- 0.0 -->
    <g style="fill: #cccccc" transform="translate(16.083125 380.13425) scale(0.2 -0.2)">
     <defs>
      <path id="LCDReg-30" d="M 600 2134 
L 809 1878 
L 584 600 
L 259 313 
L 131 469 
Q 78 531 78 588 
Q 78 634 103 769 
L 297 1878 
L 600 2134 
L 388 2391 
L 584 3497 
Q 613 3663 631 3697 
Q 653 3744 719 3797 
L 900 3956 
L 1125 3669 
L 900 2391 
L 600 2134 
z
M 2563 2134 
L 2350 2391 
L 2575 3669 
L 2900 3956 
L 3028 3797 
Q 3081 3734 3081 3678 
Q 3081 3631 3059 3497 
L 2863 2391 
L 2563 2134 
L 2772 1878 
L 2578 769 
Q 2547 603 2528 569 
Q 2503 522 2444 469 
L 2259 313 
L 2034 600 
L 2259 1878 
L 2563 2134 
z
M 2841 4041 
L 2506 3753 
L 1225 3753 
L 991 4041 
L 1122 4159 
Q 1238 4263 1375 4266 
L 2534 4266 
Q 2672 4263 2753 4159 
L 2841 4041 
z
M 319 225 
L 653 513 
L 1934 513 
L 2169 225 
L 2038 106 
Q 1922 3 1784 0 
L 625 0 
Q 484 3 406 106 
L 319 225 
z
" transform="scale(0.015625)"/>
      <path id="LCDReg-2e" d="M 653 513 
L 563 0 
L 50 0 
L 141 513 
L 653 513 
z
" transform="scale(0.015625)"/>
     </defs>
     <use xlink:href="#LCDReg-30"/>
     <use xlink:href="#LCDReg-2e" transform="translate(49.316406 0)"/>
     <use xlink:href="#LCDReg-30" transform="translate(70.654297 0)"/>
    </g>
   </g>
   <g id="text_3">
    <!-- 0.5 -->
    <g style="fill: #cccccc" transform="translate(55.509079 228.818094) scale(0.2 -0.2)">
     <defs>
      <path id="LCDReg-35" d="M 2506 3753 
L 1147 3753 
L 719 4266 
L 2597 4266 
L 2806 4009 
L 2506 3753 
z
M 1044 3691 
L 825 2450 
L 531 2209 
L 419 2341 
Q 334 2438 334 2531 
Q 334 2575 347 2638 
L 619 4194 
L 1044 3691 
z
M 916 2391 
L 2025 2391 
Q 2153 2391 2194 2363 
Q 2231 2344 2303 2256 
L 2400 2134 
L 2091 1878 
L 1041 1878 
Q 881 1878 828 1900 
Q 769 1925 703 2003 
L 600 2134 
L 916 2391 
z
M 1941 553 
L 2163 1809 
L 2472 2063 
L 2581 1931 
Q 2653 1847 2653 1744 
Q 2653 1691 2638 1606 
L 2484 741 
Q 2450 538 2353 447 
L 2156 288 
L 1941 553 
z
M 481 513 
L 1834 513 
L 2075 213 
L 1934 94 
Q 1822 0 1638 0 
L 391 0 
L 181 256 
L 481 513 
z
" transform="scale(0.015625)"/>
     </defs>
     <use xlink:href="#LCDReg-30"/>
     <use xlink:href="#LCDReg-2e" transform="translate(49.316406 0)"/>
     <use xlink:href="#LCDReg-35" transform="translate(70.654297 0)"/>
    </g>
   </g>
   <g id="text_4">
    <!-- 1.0 -->
    <g style="fill: #cccccc" transform="translate(164.89 118.046979) scale(0.2 -0.2)">
     <defs>
      <path id="LCDReg-31" d="M 1059 3753 
L 644 3753 
L 434 4009 
L 734 4266 
L 1666 4266 
L 1059 3753 
z
M 900 2388 
L 1122 3659 
L 1725 4169 
L 1409 2388 
L 1109 2131 
L 900 2388 
z
M 516 213 
L 809 1878 
L 1109 2134 
L 1319 1878 
L 1028 213 
L 725 -44 
L 516 213 
z
" transform="scale(0.015625)"/>
     </defs>
     <use xlink:href="#LCDReg-31"/>
     <use xlink:href="#LCDReg-2e" transform="translate(22.84375 0)"/>
     <use xlink:href="#LCDReg-30" transform="translate(44.181641 0)"/>
    </g>
   </g>
   <g id="text_5">
    <!-- 1.5 -->
    <g style="fill: #db7b2b" transform="translate(309.040625 79.167953) scale(0.25 -0.25)">
     <use xlink:href="#LCDReg-31"/>
     <use xlink:href="#LCDReg-2e" transform="translate(22.84375 0)"/>
     <use xlink:href="#LCDReg-35" transform="translate(44.181641 0)"/>
    </g>
   </g>
   <g id="text_6">
    <!-- 2.0 -->
    <g style="fill: #cc3232" transform="translate(451.892031 119.712995) scale(0.25 -0.25)">
     <defs>
      <path id="LCDReg-32" d="M 2434 3753 
L 1053 3753 
L 844 4009 
L 1144 4266 
L 2463 4266 
Q 2606 4272 2713 4150 
L 2788 4053 
L 2434 3753 
z
M 2275 2450 
L 2491 3672 
L 2850 3969 
L 2944 3844 
Q 2997 3772 2997 3688 
Q 2997 3647 2984 3566 
L 2816 2616 
Q 2797 2494 2688 2391 
L 2484 2206 
L 2275 2450 
z
M 2409 2134 
L 2188 1963 
Q 2103 1900 2059 1891 
Q 2003 1878 1919 1878 
L 819 1878 
L 606 2134 
L 800 2313 
Q 859 2366 944 2384 
Q 972 2391 1088 2391 
L 2194 2391 
L 2409 2134 
z
M 713 1825 
L 494 575 
L -106 81 
L 163 1609 
Q 181 1703 213 1759 
Q 222 1778 331 1878 
L 522 2050 
L 713 1825 
z
M 578 513 
L 1931 513 
L 2144 256 
L 1841 0 
L -44 0 
L 578 513 
z
" transform="scale(0.015625)"/>
     </defs>
     <use xlink:href="#LCDReg-32"/>
     <use xlink:href="#LCDReg-2e" transform="translate(46.679688 0)"/>
     <use xlink:href="#LCDReg-30" transform="translate(68.017578 0)"/>
    </g>
   </g>
   <g id="text_7">
    <!-- 2.5 -->
    <g style="fill: #cccccc" transform="translate(562.084671 228.818094) scale(0.2 -0.2)">
     <use xlink:href="#LCDReg-32"/>
     <use xlink:href="#LCDReg-2e" transform="translate(46.679688 0)"/>
     <use xlink:href="#LCDReg-35" transform="translate(68.017578 0)"/>
    </g>
   </g>
   <g id="text_8">
    <!-- 3.0 -->
    <g style="fill: #cccccc" transform="translate(601.387187 380.13425) scale(0.2 -0.2)">
     <defs>
      <path id="LCDReg-33" d="M 2084 3753 
L 753 3753 
L 544 4009 
L 844 4266 
L 2103 4266 
Q 2222 4266 2263 4244 
Q 2306 4222 2369 4147 
L 2450 4053 
L 2084 3753 
z
M 1934 2450 
L 2150 3684 
L 2513 3966 
L 2584 3878 
Q 2659 3784 2659 3700 
Q 2659 3659 2641 3553 
L 2478 2622 
Q 2463 2538 2431 2488 
Q 2422 2472 2322 2391 
L 2159 2213 
L 1934 2450 
z
M 513 2391 
L 1844 2391 
L 2063 2134 
L 1753 1878 
L 425 1878 
L 213 2138 
L 513 2391 
z
M 1603 566 
L 1819 1800 
L 2134 2069 
L 2244 1950 
Q 2319 1866 2319 1769 
Q 2319 1725 2309 1666 
L 2131 663 
Q 2113 566 2078 516 
Q 2056 488 1972 416 
L 1822 288 
L 1603 566 
z
M 184 513 
L 1513 513 
L 1747 213 
L 1603 91 
Q 1491 0 1294 0 
L 50 0 
L -159 256 
L 184 513 
z
" transform="scale(0.015625)"/>
     </defs>
     <use xlink:href="#LCDReg-33"/>
     <use xlink:href="#LCDReg-2e" transform="translate(42.675781 0)"/>
     <use xlink:href="#LCDReg-30" transform="translate(64.013672 0)"/>
    </g>
   </g>
   <g id="text_9">
    <!-- 1.14 -->
    <g style="fill: #e7b416" transform="translate(198.849733 100.653804) scale(0.25 -0.25)">
     <defs>
      <path id="LCDReg-34" d="M 1022 4053 
L 741 2447 
L 438 2200 
L 353 2294 
Q 247 2416 247 2513 
Q 247 2556 263 2647 
L 509 4053 
L 813 4309 
L 1022 4053 
z
M 2984 4053 
L 2706 2463 
L 2403 2206 
L 2194 2463 
L 2475 4053 
L 2775 4309 
L 2984 4053 
z
M 822 2391 
L 2109 2391 
L 2322 2134 
L 2019 1878 
L 931 1878 
Q 784 1878 741 1894 
Q 678 1916 625 1978 
L 500 2128 
L 822 2391 
z
M 2588 1800 
L 2309 213 
L 2006 -44 
L 1797 213 
L 2075 1800 
L 2378 2056 
L 2588 1800 
z
" transform="scale(0.015625)"/>
     </defs>
     <use xlink:href="#LCDReg-31"/>
     <use xlink:href="#LCDReg-2e" transform="translate(22.84375 0)"/>
     <use xlink:href="#LCDReg-31" transform="translate(36.056641 0)"/>
     <use xlink:href="#LCDReg-34" transform="translate(60.275391 0)"/>
    </g>
   </g>
   <g id="text_10">
    <!-- GLOBAL TEMPERATURE -->
    <g style="fill: #cccccc" transform="translate(200.819531 27.398437) scale(0.3 -0.3)">
     <defs>
      <path id="LCDReg-47" d="M 2594 3753 
L 1244 3753 
L 1006 4041 
L 1113 4131 
Q 1169 4184 1278 4231 
Q 1347 4266 1488 4266 
L 2681 4266 
L 2894 4009 
L 2594 3753 
z
M 1131 3700 
L 900 2391 
L 600 2134 
L 388 2391 
L 591 3538 
Q 616 3669 656 3722 
Q 675 3747 763 3825 
L 919 3963 
L 1131 3700 
z
M 581 578 
L 228 300 
L 150 384 
Q 72 469 72 559 
Q 72 594 94 713 
L 297 1878 
L 600 2134 
L 809 1878 
L 581 578 
z
M 2813 2391 
L 2209 1878 
L 1800 1878 
L 1591 2134 
L 1891 2391 
L 2813 2391 
z
M 2028 553 
L 2241 1763 
L 2844 2272 
L 2563 678 
Q 2538 541 2509 500 
Q 2475 447 2406 394 
L 2259 275 
L 2028 553 
z
M 663 513 
L 1913 513 
L 2175 203 
L 2006 72 
Q 1947 25 1903 12 
Q 1859 0 1750 0 
L 741 0 
Q 481 -3 400 91 
L 303 213 
L 663 513 
z
" transform="scale(0.015625)"/>
      <path id="LCDReg-4c" d="M 581 588 
L -22 75 
L 297 1878 
L 597 2134 
L 809 1878 
L 581 588 
z
M 644 513 
L 2019 513 
L 2228 256 
L 1928 0 
L 41 0 
L 644 513 
z
M 1191 4053 
L 900 2388 
L 597 2131 
L 388 2388 
L 678 4053 
L 981 4309 
L 1191 4053 
z
" transform="scale(0.015625)"/>
      <path id="LCDReg-4f" d="M 1191 3753 
L 963 4053 
L 1106 4159 
Q 1194 4225 1225 4241 
Q 1272 4266 1366 4266 
L 2528 4266 
Q 2625 4266 2669 4231 
Q 2688 4219 2750 4159 
L 2856 4053 
L 2506 3753 
L 1191 3753 
z
M 669 513 
L 1944 513 
L 2169 213 
L 2022 100 
Q 1938 38 1883 19 
Q 1828 0 1728 0 
L 700 0 
Q 581 0 541 28 
Q 488 56 444 100 
L 338 213 
L 669 513 
z
M 2575 3663 
L 2925 3963 
L 3006 3869 
Q 3084 3778 3084 3688 
Q 3084 3656 3075 3600 
L 2863 2391 
L 2559 2134 
L 2350 2391 
L 2575 3663 
z
M 2028 575 
L 2259 1878 
L 2559 2134 
L 2772 1878 
L 2575 769 
Q 2547 600 2531 569 
Q 2513 528 2441 469 
L 2244 309 
L 2028 575 
z
M 1122 3663 
L 897 2391 
L 597 2134 
L 388 2391 
L 600 3600 
Q 625 3747 763 3869 
L 878 3963 
L 1122 3663 
z
M 578 575 
L 269 309 
L 128 469 
Q 72 534 72 588 
Q 72 606 100 769 
L 297 1878 
L 597 2134 
L 809 1878 
L 578 575 
z
" transform="scale(0.015625)"/>
      <path id="LCDReg-42" d="M 2513 3753 
L 1241 3753 
L 813 4266 
L 2553 4266 
Q 2650 4266 2684 4244 
Q 2747 4209 2794 4150 
L 2872 4053 
L 2513 3753 
z
M 1131 3694 
L 913 2466 
L 613 2209 
L 400 2466 
L 709 4206 
L 1131 3694 
z
M 2363 2450 
L 2575 3669 
L 2928 3966 
L 3025 3856 
Q 3088 3784 3088 3700 
Q 3088 3666 3072 3581 
L 2903 2622 
Q 2875 2441 2803 2375 
L 2584 2197 
L 2363 2450 
z
M 2181 1878 
L 894 1878 
L 681 2134 
L 984 2391 
L 2272 2391 
L 2481 2134 
L 2181 1878 
z
M 800 1816 
L 581 581 
L -22 66 
L 288 1816 
L 588 2072 
L 800 1816 
z
M 2028 566 
L 2247 1803 
L 2559 2063 
L 2653 1947 
Q 2744 1838 2744 1753 
Q 2744 1716 2731 1650 
L 2563 678 
Q 2534 525 2431 438 
L 2247 294 
L 2028 566 
z
M 653 513 
L 1941 513 
L 2169 213 
L 2063 122 
Q 1978 47 1920 23 
Q 1863 0 1769 0 
L 53 0 
L 653 513 
z
" transform="scale(0.015625)"/>
      <path id="LCDReg-41" d="M 2475 3753 
L 1228 3753 
L 1003 4053 
L 1166 4188 
Q 1228 4238 1291 4256 
Q 1322 4266 1438 4266 
L 2484 4266 
Q 2606 4266 2644 4250 
Q 2691 4231 2728 4188 
L 2834 4066 
L 2475 3753 
z
M 2266 2391 
L 2478 2134 
L 2175 1878 
L 891 1878 
L 681 2134 
L 981 2391 
L 2266 2391 
z
M 1131 3700 
L 913 2466 
L 613 2209 
L 400 2466 
L 588 3534 
Q 616 3678 644 3725 
Q 675 3778 756 3847 
L 913 3981 
L 1131 3700 
z
M 797 1816 
L 516 213 
L 213 -44 
L 3 213 
L 284 1816 
L 588 2072 
L 797 1816 
z
M 2581 3700 
L 2897 3981 
L 3006 3847 
Q 3081 3759 3081 3684 
Q 3081 3634 3063 3534 
L 2872 2450 
L 2572 2194 
L 2359 2450 
L 2581 3700 
z
M 2247 1800 
L 2547 2056 
L 2756 1800 
L 2478 213 
L 2178 -44 
L 1966 213 
L 2247 1800 
z
" transform="scale(0.015625)"/>
      <path id="LCDReg-20" transform="scale(0.015625)"/>
      <path id="LCDReg-54" d="M 2634 3753 
L 669 3753 
L 459 4009 
L 759 4266 
L 2722 4266 
L 2934 4009 
L 2634 3753 
z
M 1884 3631 
L 1666 2391 
L 1366 2134 
L 1156 2391 
L 1375 3631 
L 1884 3631 
z
M 1575 1878 
L 1284 213 
L 981 -44 
L 772 213 
L 1066 1878 
L 1366 2134 
L 1575 1878 
z
" transform="scale(0.015625)"/>
      <path id="LCDReg-45" d="M 2613 3753 
L 1231 3753 
L 803 4266 
L 2703 4266 
L 2916 4009 
L 2613 3753 
z
M 1131 3697 
L 913 2466 
L 613 2209 
L 400 2466 
L 709 4209 
L 1131 3697 
z
M 2281 1878 
L 900 1878 
L 691 2134 
L 991 2391 
L 2372 2391 
L 2584 2134 
L 2281 1878 
z
M 800 1816 
L 584 594 
L -19 81 
L 288 1816 
L 588 2072 
L 800 1816 
z
M 659 513 
L 2041 513 
L 2253 256 
L 1950 0 
L 50 0 
L 659 513 
z
" transform="scale(0.015625)"/>
      <path id="LCDReg-4d" d="M 2484 3753 
L 1228 3753 
L 1000 4038 
L 1259 4266 
L 2634 4266 
L 2813 4038 
L 2484 3753 
z
M 2091 3641 
L 1913 2634 
L 1625 2388 
L 1422 2634 
L 1597 3641 
L 2091 3641 
z
M 1131 3706 
L 900 2391 
L 597 2134 
L 388 2391 
L 619 3706 
L 922 3963 
L 1131 3706 
z
M 809 1878 
L 516 213 
L 213 -44 
L 3 213 
L 297 1878 
L 597 2134 
L 809 1878 
z
M 2581 3706 
L 2884 3963 
L 3094 3706 
L 2863 2391 
L 2559 2134 
L 2350 2391 
L 2581 3706 
z
M 2259 1878 
L 2559 2134 
L 2772 1878 
L 2478 213 
L 2178 -44 
L 1966 213 
L 2259 1878 
z
" transform="scale(0.015625)"/>
      <path id="LCDReg-50" d="M 2513 3753 
L 1228 3753 
L 809 4266 
L 2484 4266 
Q 2609 4266 2647 4250 
Q 2684 4238 2772 4147 
L 2863 4053 
L 2513 3753 
z
M 1128 3697 
L 913 2466 
L 613 2209 
L 400 2456 
L 706 4206 
L 1128 3697 
z
M 2359 2450 
L 2578 3681 
L 2919 3972 
L 2988 3894 
Q 3081 3794 3081 3669 
Q 3081 3634 3075 3594 
L 2916 2697 
Q 2888 2534 2866 2494 
Q 2831 2425 2769 2375 
L 2559 2200 
L 2359 2450 
z
M 981 2391 
L 2266 2391 
L 2469 2134 
L 2278 1978 
Q 2181 1903 2116 1891 
Q 2066 1878 1966 1878 
L 891 1878 
L 681 2134 
L 981 2391 
z
M 797 1816 
L 516 213 
L 213 -44 
L 3 213 
L 288 1816 
L 588 2072 
L 797 1816 
z
" transform="scale(0.015625)"/>
      <path id="LCDReg-52" d="M 797 4266 
L 2503 4266 
Q 2606 4266 2638 4253 
Q 2697 4228 2747 4172 
L 2866 4041 
L 2522 3753 
L 1213 3753 
L 797 4266 
z
M 400 2466 
L 706 4200 
L 1128 3691 
L 913 2466 
L 613 2209 
L 400 2466 
z
M 981 2391 
L 2266 2391 
L 2478 2134 
L 2272 1950 
Q 2216 1900 2141 1884 
Q 2113 1878 1981 1878 
L 891 1878 
L 681 2134 
L 981 2391 
z
M 1272 1772 
L 2497 325 
L 2431 -44 
L 2128 -44 
L 853 1472 
L 906 1772 
L 1272 1772 
z
M 2359 2450 
L 2575 3666 
L 2934 3969 
L 3009 3884 
Q 3084 3803 3084 3700 
Q 3084 3653 3072 3584 
L 2903 2625 
Q 2881 2475 2784 2375 
L 2572 2194 
L 2359 2450 
z
M 797 1816 
L 516 213 
L 213 -44 
L 3 213 
L 281 1784 
L 588 2072 
L 797 1816 
z
" transform="scale(0.015625)"/>
      <path id="LCDReg-55" d="M 578 578 
L 234 300 
L 159 388 
Q 75 484 75 578 
Q 75 625 91 722 
L 297 1878 
L 597 2134 
L 809 1878 
L 578 578 
z
M 2266 291 
L 2028 575 
L 2259 1878 
L 2559 2134 
L 2772 1878 
L 2559 678 
Q 2541 575 2516 534 
Q 2500 503 2403 416 
L 2266 291 
z
M 316 213 
L 669 513 
L 1931 513 
L 2175 213 
L 2034 103 
Q 1944 34 1886 17 
Q 1828 0 1694 0 
L 719 0 
Q 566 0 509 28 
Q 469 47 413 103 
L 316 213 
z
M 1191 4053 
L 900 2388 
L 597 2131 
L 388 2388 
L 681 4053 
L 981 4309 
L 1191 4053 
z
M 3153 4053 
L 2863 2388 
L 2559 2131 
L 2350 2388 
L 2644 4053 
L 2944 4309 
L 3153 4053 
z
" transform="scale(0.015625)"/>
     </defs>
     <use xlink:href="#LCDReg-47"/>
     <use xlink:href="#LCDReg-4c" transform="translate(47.998047 0)"/>
     <use xlink:href="#LCDReg-4f" transform="translate(84.613281 0)"/>
     <use xlink:href="#LCDReg-42" transform="translate(133.929688 0)"/>
     <use xlink:href="#LCDReg-41" transform="translate(179.246094 0)"/>
     <use xlink:href="#LCDReg-4c" transform="translate(228.5625 0)"/>
     <use xlink:href="#LCDReg-20" transform="translate(268.552734 0)"/>
     <use xlink:href="#LCDReg-54" transform="translate(293.552734 0)"/>
     <use xlink:href="#LCDReg-45" transform="translate(336.228516 0)"/>
     <use xlink:href="#LCDReg-4d" transform="translate(378.904297 0)"/>
     <use xlink:href="#LCDReg-50" transform="translate(428.220703 0)"/>
     <use xlink:href="#LCDReg-45" transform="translate(476.21875 0)"/>
     <use xlink:href="#LCDReg-52" transform="translate(518.894531 0)"/>
     <use xlink:href="#LCDReg-41" transform="translate(568.210938 0)"/>
     <use xlink:href="#LCDReg-54" transform="translate(613.277344 0)"/>
     <use xlink:href="#LCDReg-55" transform="translate(655.953125 0)"/>
     <use xlink:href="#LCDReg-52" transform="translate(705.269531 0)"/>
     <use xlink:href="#LCDReg-45" transform="translate(754.585938 0)"/>
    </g>
   </g>
   <g id="text_11">
    <!-- Warming compared to pre-industrial times -->
    <g style="fill: #cccccc" transform="translate(156.621875 49.083781) scale(0.2 -0.2)">
     <defs>
      <path id="LCDReg-57" d="M 656 513 
L 1922 513 
L 2163 213 
L 1928 0 
L 478 0 
L 309 213 
L 656 513 
z
M 2028 566 
L 2259 1878 
L 2559 2134 
L 2772 1878 
L 2541 566 
L 2238 313 
L 2028 566 
z
M 1050 628 
L 1228 1634 
L 1528 1891 
L 1738 1634 
L 1563 628 
L 1050 628 
z
M 56 513 
L 297 1878 
L 597 2134 
L 809 1878 
L 581 600 
L 234 313 
L 56 513 
z
M 2350 2388 
L 2644 4053 
L 2944 4309 
L 3156 4053 
L 2863 2388 
L 2559 2131 
L 2350 2388 
z
M 388 2388 
L 681 4053 
L 981 4309 
L 1194 4053 
L 900 2388 
L 597 2131 
L 388 2388 
z
" transform="scale(0.015625)"/>
      <path id="LCDReg-61" d="M 2475 3753 
L 1228 3753 
L 1003 4053 
L 1166 4188 
Q 1228 4238 1291 4256 
Q 1322 4266 1438 4266 
L 2484 4266 
Q 2606 4266 2644 4250 
Q 2691 4231 2728 4188 
L 2834 4066 
L 2475 3753 
z
M 2266 2391 
L 2478 2134 
L 2175 1878 
L 891 1878 
L 681 2134 
L 981 2391 
L 2266 2391 
z
M 1131 3700 
L 913 2466 
L 613 2209 
L 400 2466 
L 588 3534 
Q 616 3678 644 3725 
Q 675 3778 756 3847 
L 913 3981 
L 1131 3700 
z
M 797 1816 
L 516 213 
L 213 -44 
L 3 213 
L 284 1816 
L 588 2072 
L 797 1816 
z
M 2581 3700 
L 2897 3981 
L 3006 3847 
Q 3081 3759 3081 3684 
Q 3081 3634 3063 3534 
L 2872 2450 
L 2572 2194 
L 2359 2450 
L 2581 3700 
z
M 2247 1800 
L 2547 2056 
L 2756 1800 
L 2478 213 
L 2178 -44 
L 1966 213 
L 2247 1800 
z
" transform="scale(0.015625)"/>
      <path id="LCDReg-72" d="M 797 4266 
L 2503 4266 
Q 2606 4266 2638 4253 
Q 2697 4228 2747 4172 
L 2866 4041 
L 2522 3753 
L 1213 3753 
L 797 4266 
z
M 400 2466 
L 706 4200 
L 1128 3691 
L 913 2466 
L 613 2209 
L 400 2466 
z
M 981 2391 
L 2266 2391 
L 2478 2134 
L 2272 1950 
Q 2216 1900 2141 1884 
Q 2113 1878 1981 1878 
L 891 1878 
L 681 2134 
L 981 2391 
z
M 1272 1772 
L 2497 325 
L 2431 -44 
L 2128 -44 
L 853 1472 
L 906 1772 
L 1272 1772 
z
M 2359 2450 
L 2575 3666 
L 2934 3969 
L 3009 3884 
Q 3084 3803 3084 3700 
Q 3084 3653 3072 3584 
L 2903 2625 
Q 2881 2475 2784 2375 
L 2572 2194 
L 2359 2450 
z
M 797 1816 
L 516 213 
L 213 -44 
L 3 213 
L 281 1784 
L 588 2072 
L 797 1816 
z
" transform="scale(0.015625)"/>
      <path id="LCDReg-6d" d="M 2484 3753 
L 1228 3753 
L 1000 4038 
L 1259 4266 
L 2634 4266 
L 2813 4038 
L 2484 3753 
z
M 2091 3641 
L 1913 2634 
L 1625 2388 
L 1422 2634 
L 1597 3641 
L 2091 3641 
z
M 1131 3706 
L 900 2391 
L 597 2134 
L 388 2391 
L 619 3706 
L 922 3963 
L 1131 3706 
z
M 809 1878 
L 516 213 
L 213 -44 
L 3 213 
L 297 1878 
L 597 2134 
L 809 1878 
z
M 2581 3706 
L 2884 3963 
L 3094 3706 
L 2863 2391 
L 2559 2134 
L 2350 2391 
L 2581 3706 
z
M 2259 1878 
L 2559 2134 
L 2772 1878 
L 2478 213 
L 2178 -44 
L 1966 213 
L 2259 1878 
z
" transform="scale(0.015625)"/>
      <path id="LCDReg-69" d="M 1194 4053 
L 900 2388 
L 597 2131 
L 388 2388 
L 681 4053 
L 991 4309 
L 1194 4053 
z
M 809 1878 
L 516 213 
L 222 -44 
L 3 213 
L 297 1878 
L 597 2134 
L 809 1878 
z
" transform="scale(0.015625)"/>
      <path id="LCDReg-6e" d="M 1194 4053 
L 900 2388 
L 597 2131 
L 388 2388 
L 681 4053 
L 981 4309 
L 1194 4053 
z
M 1606 4053 
L 2316 2803 
L 2244 2391 
L 1959 2391 
L 1228 3650 
L 1300 4053 
L 1606 4053 
z
M 3156 4053 
L 2863 2388 
L 2559 2131 
L 2350 2388 
L 2644 4053 
L 2944 4309 
L 3156 4053 
z
M 809 1878 
L 516 213 
L 213 -44 
L 3 213 
L 297 1878 
L 597 2134 
L 809 1878 
z
M 2772 1878 
L 2478 213 
L 2178 -44 
L 1966 213 
L 2259 1878 
L 2559 2134 
L 2772 1878 
z
" transform="scale(0.015625)"/>
      <path id="LCDReg-67" d="M 2594 3753 
L 1244 3753 
L 1006 4041 
L 1113 4131 
Q 1169 4184 1278 4231 
Q 1347 4266 1488 4266 
L 2681 4266 
L 2894 4009 
L 2594 3753 
z
M 1131 3700 
L 900 2391 
L 600 2134 
L 388 2391 
L 591 3538 
Q 616 3669 656 3722 
Q 675 3747 763 3825 
L 919 3963 
L 1131 3700 
z
M 581 578 
L 228 300 
L 150 384 
Q 72 469 72 559 
Q 72 594 94 713 
L 297 1878 
L 600 2134 
L 809 1878 
L 581 578 
z
M 2813 2391 
L 2209 1878 
L 1800 1878 
L 1591 2134 
L 1891 2391 
L 2813 2391 
z
M 2028 553 
L 2241 1763 
L 2844 2272 
L 2563 678 
Q 2538 541 2509 500 
Q 2475 447 2406 394 
L 2259 275 
L 2028 553 
z
M 663 513 
L 1913 513 
L 2175 203 
L 2006 72 
Q 1947 25 1903 12 
Q 1859 0 1750 0 
L 741 0 
Q 481 -3 400 91 
L 303 213 
L 663 513 
z
" transform="scale(0.015625)"/>
      <path id="LCDReg-63" d="M 2613 3753 
L 1222 3753 
L 1000 4053 
L 1131 4153 
Q 1231 4231 1275 4247 
Q 1325 4266 1416 4266 
L 2700 4266 
L 2913 4009 
L 2613 3753 
z
M 1128 3688 
L 897 2391 
L 591 2134 
L 388 2391 
L 588 3528 
Q 613 3666 628 3700 
Q 653 3750 728 3813 
L 913 3959 
L 1128 3688 
z
M 578 591 
L 238 306 
L 128 438 
Q 75 500 75 588 
Q 75 625 100 759 
L 297 1878 
L 591 2134 
L 809 1878 
L 578 591 
z
M 650 513 
L 2038 513 
L 2250 256 
L 1950 0 
L 728 0 
Q 588 0 541 16 
Q 469 34 413 94 
L 309 213 
L 650 513 
z
" transform="scale(0.015625)"/>
      <path id="LCDReg-6f" d="M 1191 3753 
L 963 4053 
L 1106 4159 
Q 1194 4225 1225 4241 
Q 1272 4266 1366 4266 
L 2528 4266 
Q 2625 4266 2669 4231 
Q 2688 4219 2750 4159 
L 2856 4053 
L 2506 3753 
L 1191 3753 
z
M 669 513 
L 1944 513 
L 2169 213 
L 2022 100 
Q 1938 38 1883 19 
Q 1828 0 1728 0 
L 700 0 
Q 581 0 541 28 
Q 488 56 444 100 
L 338 213 
L 669 513 
z
M 2575 3663 
L 2925 3963 
L 3006 3869 
Q 3084 3778 3084 3688 
Q 3084 3656 3075 3600 
L 2863 2391 
L 2559 2134 
L 2350 2391 
L 2575 3663 
z
M 2028 575 
L 2259 1878 
L 2559 2134 
L 2772 1878 
L 2575 769 
Q 2547 600 2531 569 
Q 2513 528 2441 469 
L 2244 309 
L 2028 575 
z
M 1122 3663 
L 897 2391 
L 597 2134 
L 388 2391 
L 600 3600 
Q 625 3747 763 3869 
L 878 3963 
L 1122 3663 
z
M 578 575 
L 269 309 
L 128 469 
Q 72 534 72 588 
Q 72 606 100 769 
L 297 1878 
L 597 2134 
L 809 1878 
L 578 575 
z
" transform="scale(0.015625)"/>
      <path id="LCDReg-70" d="M 2513 3753 
L 1228 3753 
L 809 4266 
L 2484 4266 
Q 2609 4266 2647 4250 
Q 2684 4238 2772 4147 
L 2863 4053 
L 2513 3753 
z
M 1128 3697 
L 913 2466 
L 613 2209 
L 400 2456 
L 706 4206 
L 1128 3697 
z
M 2359 2450 
L 2578 3681 
L 2919 3972 
L 2988 3894 
Q 3081 3794 3081 3669 
Q 3081 3634 3075 3594 
L 2916 2697 
Q 2888 2534 2866 2494 
Q 2831 2425 2769 2375 
L 2559 2200 
L 2359 2450 
z
M 981 2391 
L 2266 2391 
L 2469 2134 
L 2278 1978 
Q 2181 1903 2116 1891 
Q 2066 1878 1966 1878 
L 891 1878 
L 681 2134 
L 981 2391 
z
M 797 1816 
L 516 213 
L 213 -44 
L 3 213 
L 288 1816 
L 588 2072 
L 797 1816 
z
" transform="scale(0.015625)"/>
      <path id="LCDReg-65" d="M 2613 3753 
L 1231 3753 
L 803 4266 
L 2703 4266 
L 2916 4009 
L 2613 3753 
z
M 1131 3697 
L 913 2466 
L 613 2209 
L 400 2466 
L 709 4209 
L 1131 3697 
z
M 2281 1878 
L 900 1878 
L 691 2134 
L 991 2391 
L 2372 2391 
L 2584 2134 
L 2281 1878 
z
M 800 1816 
L 584 594 
L -19 81 
L 288 1816 
L 588 2072 
L 800 1816 
z
M 659 513 
L 2041 513 
L 2253 256 
L 1950 0 
L 50 0 
L 659 513 
z
" transform="scale(0.015625)"/>
      <path id="LCDReg-64" d="M 2534 3753 
L 1231 3753 
L 809 4266 
L 2513 4266 
Q 2622 4266 2666 4247 
Q 2734 4219 2794 4150 
L 2888 4041 
L 2534 3753 
z
M 1131 3694 
L 900 2388 
L 597 2131 
L 388 2388 
L 709 4206 
L 1131 3694 
z
M 2575 3659 
L 2944 3959 
L 3031 3847 
Q 3081 3781 3081 3688 
Q 3081 3634 3066 3544 
L 2863 2391 
L 2559 2134 
L 2350 2391 
L 2575 3659 
z
M 584 597 
L -19 88 
L 297 1878 
L 597 2134 
L 809 1878 
L 584 597 
z
M 2259 269 
L 2031 575 
L 2259 1878 
L 2559 2134 
L 2772 1878 
L 2569 728 
Q 2544 594 2525 550 
Q 2497 494 2444 441 
L 2259 269 
z
M 634 513 
L 1931 513 
L 2191 197 
L 2081 113 
Q 1938 3 1750 0 
L 31 0 
L 634 513 
z
" transform="scale(0.015625)"/>
      <path id="LCDReg-74" d="M 2634 3753 
L 669 3753 
L 459 4009 
L 759 4266 
L 2722 4266 
L 2934 4009 
L 2634 3753 
z
M 1884 3631 
L 1666 2391 
L 1366 2134 
L 1156 2391 
L 1375 3631 
L 1884 3631 
z
M 1575 1878 
L 1284 213 
L 981 -44 
L 772 213 
L 1066 1878 
L 1366 2134 
L 1575 1878 
z
" transform="scale(0.015625)"/>
      <path id="LCDReg-2d" d="M 1116 1534 
L 306 1534 
L 134 1928 
L 500 2047 
L 1316 2047 
L 1494 1653 
L 1116 1534 
z
" transform="scale(0.015625)"/>
      <path id="LCDReg-75" d="M 578 578 
L 234 300 
L 159 388 
Q 75 484 75 578 
Q 75 625 91 722 
L 297 1878 
L 597 2134 
L 809 1878 
L 578 578 
z
M 2266 291 
L 2028 575 
L 2259 1878 
L 2559 2134 
L 2772 1878 
L 2559 678 
Q 2541 575 2516 534 
Q 2500 503 2403 416 
L 2266 291 
z
M 316 213 
L 669 513 
L 1931 513 
L 2175 213 
L 2034 103 
Q 1944 34 1886 17 
Q 1828 0 1694 0 
L 719 0 
Q 566 0 509 28 
Q 469 47 413 103 
L 316 213 
z
M 1191 4053 
L 900 2388 
L 597 2131 
L 388 2388 
L 681 4053 
L 981 4309 
L 1191 4053 
z
M 3153 4053 
L 2863 2388 
L 2559 2131 
L 2350 2388 
L 2644 4053 
L 2944 4309 
L 3153 4053 
z
" transform="scale(0.015625)"/>
      <path id="LCDReg-73" d="M 1225 3753 
L 988 4053 
L 1134 4166 
Q 1228 4241 1281 4256 
Q 1313 4266 1459 4266 
L 2672 4266 
L 2884 4009 
L 2584 3753 
L 1225 3753 
z
M 1131 3697 
L 909 2447 
L 603 2194 
L 513 2309 
Q 425 2422 425 2550 
Q 425 2600 434 2656 
L 588 3525 
Q 616 3672 647 3725 
Q 678 3778 788 3866 
L 916 3966 
L 1131 3697 
z
M 994 2391 
L 2100 2391 
Q 2238 2391 2284 2369 
Q 2344 2338 2409 2250 
L 2494 2134 
L 2188 1878 
L 1072 1878 
Q 941 1878 891 1909 
Q 828 1944 769 2022 
L 684 2134 
L 994 2391 
z
M 2031 572 
L 2247 1797 
L 2559 2053 
L 2672 1909 
Q 2741 1822 2741 1728 
Q 2741 1697 2728 1622 
L 2556 656 
Q 2534 525 2409 419 
L 2247 291 
L 2031 572 
z
M 2163 213 
L 2047 113 
Q 1966 44 1905 22 
Q 1844 0 1722 0 
L 469 0 
L 259 256 
L 559 513 
L 1944 513 
L 2163 213 
z
" transform="scale(0.015625)"/>
      <path id="LCDReg-6c" d="M 581 588 
L -22 75 
L 297 1878 
L 597 2134 
L 809 1878 
L 581 588 
z
M 644 513 
L 2019 513 
L 2228 256 
L 1928 0 
L 41 0 
L 644 513 
z
M 1191 4053 
L 900 2388 
L 597 2131 
L 388 2388 
L 678 4053 
L 981 4309 
L 1191 4053 
z
" transform="scale(0.015625)"/>
     </defs>
     <use xlink:href="#LCDReg-57"/>
     <use xlink:href="#LCDReg-61" transform="translate(45.566406 0)"/>
     <use xlink:href="#LCDReg-72" transform="translate(94.882812 0)"/>
     <use xlink:href="#LCDReg-6d" transform="translate(140.074219 0)"/>
     <use xlink:href="#LCDReg-69" transform="translate(189.390625 0)"/>
     <use xlink:href="#LCDReg-6e" transform="translate(208.042969 0)"/>
     <use xlink:href="#LCDReg-67" transform="translate(257.359375 0)"/>
     <use xlink:href="#LCDReg-20" transform="translate(305.357422 0)"/>
     <use xlink:href="#LCDReg-63" transform="translate(330.357422 0)"/>
     <use xlink:href="#LCDReg-6f" transform="translate(373.033203 0)"/>
     <use xlink:href="#LCDReg-6d" transform="translate(422.349609 0)"/>
     <use xlink:href="#LCDReg-70" transform="translate(468.041016 0)"/>
     <use xlink:href="#LCDReg-61" transform="translate(516.039062 0)"/>
     <use xlink:href="#LCDReg-72" transform="translate(565.355469 0)"/>
     <use xlink:href="#LCDReg-65" transform="translate(610.421875 0)"/>
     <use xlink:href="#LCDReg-64" transform="translate(653.097656 0)"/>
     <use xlink:href="#LCDReg-20" transform="translate(702.414062 0)"/>
     <use xlink:href="#LCDReg-74" transform="translate(727.414062 0)"/>
     <use xlink:href="#LCDReg-6f" transform="translate(766.089844 0)"/>
     <use xlink:href="#LCDReg-20" transform="translate(815.40625 0)"/>
     <use xlink:href="#LCDReg-70" transform="translate(840.40625 0)"/>
     <use xlink:href="#LCDReg-72" transform="translate(888.404297 0)"/>
     <use xlink:href="#LCDReg-65" transform="translate(933.470703 0)"/>
     <use xlink:href="#LCDReg-2d" transform="translate(976.146484 0)"/>
     <use xlink:href="#LCDReg-69" transform="translate(1003.490234 0)"/>
     <use xlink:href="#LCDReg-6e" transform="translate(1022.142578 0)"/>
     <use xlink:href="#LCDReg-64" transform="translate(1071.458984 0)"/>
     <use xlink:href="#LCDReg-75" transform="translate(1120.775391 0)"/>
     <use xlink:href="#LCDReg-73" transform="translate(1170.091797 0)"/>
     <use xlink:href="#LCDReg-74" transform="translate(1214.533203 0)"/>
     <use xlink:href="#LCDReg-72" transform="translate(1257.208984 0)"/>
     <use xlink:href="#LCDReg-69" transform="translate(1302.275391 0)"/>
     <use xlink:href="#LCDReg-61" transform="translate(1320.927734 0)"/>
     <use xlink:href="#LCDReg-6c" transform="translate(1370.244141 0)"/>
     <use xlink:href="#LCDReg-20" transform="translate(1410.234375 0)"/>
     <use xlink:href="#LCDReg-74" transform="translate(1435.234375 0)"/>
     <use xlink:href="#LCDReg-69" transform="translate(1477.910156 0)"/>
     <use xlink:href="#LCDReg-6d" transform="translate(1496.5625 0)"/>
     <use xlink:href="#LCDReg-65" transform="translate(1545.878906 0)"/>
     <use xlink:href="#LCDReg-73" transform="translate(1588.554688 0)"/>
    </g>
   </g>
   <g id="text_12">
    <!-- Sources: IPCC Special Report (2018) | Paris Agreement (2015) | IPCC AR6 (2023) -->
    <g style="fill: #666666" transform="translate(122.396797 403.839437) scale(0.13 -0.13)">
     <defs>
      <path id="LCDReg-53" d="M 1225 3753 
L 988 4053 
L 1134 4166 
Q 1228 4241 1281 4256 
Q 1313 4266 1459 4266 
L 2672 4266 
L 2884 4009 
L 2584 3753 
L 1225 3753 
z
M 1131 3697 
L 909 2447 
L 603 2194 
L 513 2309 
Q 425 2422 425 2550 
Q 425 2600 434 2656 
L 588 3525 
Q 616 3672 647 3725 
Q 678 3778 788 3866 
L 916 3966 
L 1131 3697 
z
M 994 2391 
L 2100 2391 
Q 2238 2391 2284 2369 
Q 2344 2338 2409 2250 
L 2494 2134 
L 2188 1878 
L 1072 1878 
Q 941 1878 891 1909 
Q 828 1944 769 2022 
L 684 2134 
L 994 2391 
z
M 2031 572 
L 2247 1797 
L 2559 2053 
L 2672 1909 
Q 2741 1822 2741 1728 
Q 2741 1697 2728 1622 
L 2556 656 
Q 2534 525 2409 419 
L 2247 291 
L 2031 572 
z
M 2163 213 
L 2047 113 
Q 1966 44 1905 22 
Q 1844 0 1722 0 
L 469 0 
L 259 256 
L 559 513 
L 1944 513 
L 2163 213 
z
" transform="scale(0.015625)"/>
      <path id="LCDReg-3a" d="M 894 1878 
L 803 1363 
L 291 1363 
L 381 1878 
L 894 1878 
z
M 653 513 
L 563 0 
L 50 0 
L 141 513 
L 653 513 
z
" transform="scale(0.015625)"/>
      <path id="LCDReg-49" d="M 1194 4053 
L 900 2388 
L 597 2131 
L 388 2388 
L 681 4053 
L 991 4309 
L 1194 4053 
z
M 809 1878 
L 516 213 
L 222 -44 
L 3 213 
L 297 1878 
L 597 2134 
L 809 1878 
z
" transform="scale(0.015625)"/>
      <path id="LCDReg-28" d="M 1631 3753 
L 1241 3753 
L 997 4053 
L 1116 4150 
Q 1200 4228 1228 4241 
Q 1278 4266 1331 4266 
L 1722 4266 
L 1953 4003 
L 1631 3753 
z
M 1131 3697 
L 900 2391 
L 597 2134 
L 388 2391 
L 591 3534 
Q 613 3659 638 3713 
Q 659 3756 728 3813 
L 925 3969 
L 1131 3697 
z
M 809 1878 
L 581 581 
L 234 294 
L 144 416 
Q 78 506 78 594 
Q 78 634 84 678 
L 297 1878 
L 597 2134 
L 809 1878 
z
M 669 513 
L 1059 513 
L 1284 250 
L 969 0 
L 631 0 
Q 491 -3 394 106 
L 313 213 
L 669 513 
z
" transform="scale(0.015625)"/>
      <path id="LCDReg-38" d="M 2834 4053 
L 2494 3753 
L 1238 3753 
L 1000 4053 
L 1141 4163 
Q 1234 4234 1263 4247 
Q 1309 4266 1391 4266 
L 2522 4266 
Q 2613 4266 2653 4241 
Q 2672 4231 2734 4163 
L 2834 4053 
z
M 2163 1878 
L 906 1878 
L 694 2134 
L 997 2391 
L 2253 2391 
L 2463 2134 
L 2163 1878 
z
M 297 213 
L 666 513 
L 1922 513 
L 2188 213 
L 2059 94 
Q 1938 -6 1744 0 
L 663 0 
Q 466 -3 381 94 
L 297 213 
z
M 1128 3694 
L 909 2447 
L 613 2209 
L 513 2322 
Q 419 2428 419 2534 
Q 419 2569 441 2691 
L 588 3519 
Q 606 3622 644 3675 
Q 659 3703 747 3784 
L 919 3950 
L 1128 3694 
z
M 800 1819 
L 575 559 
L 234 288 
L 119 431 
Q 75 488 75 575 
Q 75 619 84 672 
L 250 1603 
Q 272 1728 306 1788 
Q 334 1841 419 1919 
L 588 2069 
L 800 1819 
z
M 2581 3694 
L 2881 3950 
L 2997 3784 
Q 3069 3681 3069 3600 
Q 3069 3563 3063 3519 
L 2916 2691 
Q 2888 2531 2838 2453 
Q 2794 2388 2713 2322 
L 2575 2209 
L 2359 2447 
L 2581 3694 
z
M 2250 1819 
L 2550 2069 
L 2663 1919 
Q 2738 1822 2738 1734 
Q 2738 1684 2722 1603 
L 2559 672 
Q 2534 522 2441 431 
L 2275 288 
L 2028 559 
L 2250 1819 
z
" transform="scale(0.015625)"/>
      <path id="LCDReg-29" d="M 78 513 
L 469 513 
L 713 213 
L 594 116 
Q 506 38 472 19 
Q 438 0 378 0 
L -13 0 
L -244 263 
L 78 513 
z
M 578 572 
L 809 1878 
L 1109 2134 
L 1322 1878 
L 1119 734 
Q 1097 603 1072 556 
Q 1050 513 981 453 
L 784 297 
L 578 572 
z
M 900 2391 
L 1128 3688 
L 1475 3975 
L 1566 3850 
Q 1631 3759 1631 3678 
Q 1631 3638 1622 3588 
L 1413 2391 
L 1109 2134 
L 900 2391 
z
M 1041 3753 
L 647 3753 
L 425 4016 
L 738 4266 
L 1078 4266 
Q 1216 4269 1313 4159 
L 1397 4053 
L 1041 3753 
z
" transform="scale(0.015625)"/>
      <path id="LCDReg-7c" d="M 1441 4266 
L 1866 4266 
L 1866 -1066 
L 1441 -1066 
L 1441 4266 
z
" transform="scale(0.015625)"/>
      <path id="LCDReg-36" d="M 2591 3753 
L 1238 3753 
L 997 4053 
L 1150 4166 
Q 1247 4238 1291 4250 
Q 1338 4266 1456 4266 
L 2681 4266 
L 2891 4009 
L 2591 3753 
z
M 1128 3691 
L 913 2466 
L 609 2209 
L 400 2466 
L 594 3572 
Q 622 3731 741 3828 
L 916 3963 
L 1128 3691 
z
M 997 2391 
L 2128 2391 
Q 2231 2391 2272 2369 
Q 2309 2353 2369 2278 
L 2481 2134 
L 2166 1878 
L 906 1878 
L 697 2134 
L 997 2391 
z
M 797 1813 
L 578 578 
L 269 300 
L 138 431 
Q 75 494 75 584 
Q 75 625 88 691 
L 284 1813 
L 584 2069 
L 797 1813 
z
M 2028 563 
L 2247 1809 
L 2553 2050 
L 2669 1878 
Q 2734 1781 2734 1744 
Q 2734 1672 2716 1566 
L 2566 722 
Q 2531 522 2413 422 
L 2241 281 
L 2028 563 
z
M 666 513 
L 1925 513 
L 2156 206 
L 2044 113 
Q 1959 41 1893 20 
Q 1828 0 1691 0 
L 722 0 
Q 541 0 497 25 
Q 450 47 394 113 
L 316 206 
L 666 513 
z
" transform="scale(0.015625)"/>
     </defs>
     <use xlink:href="#LCDReg-53"/>
     <use xlink:href="#LCDReg-6f" transform="translate(49.316406 0)"/>
     <use xlink:href="#LCDReg-75" transform="translate(98.632812 0)"/>
     <use xlink:href="#LCDReg-72" transform="translate(147.949219 0)"/>
     <use xlink:href="#LCDReg-63" transform="translate(193.140625 0)"/>
     <use xlink:href="#LCDReg-65" transform="translate(235.816406 0)"/>
     <use xlink:href="#LCDReg-73" transform="translate(278.492188 0)"/>
     <use xlink:href="#LCDReg-3a" transform="translate(327.808594 0)"/>
     <use xlink:href="#LCDReg-20" transform="translate(349.146484 0)"/>
     <use xlink:href="#LCDReg-49" transform="translate(374.146484 0)"/>
     <use xlink:href="#LCDReg-50" transform="translate(392.798828 0)"/>
     <use xlink:href="#LCDReg-43" transform="translate(440.796875 0)"/>
     <use xlink:href="#LCDReg-43" transform="translate(483.472656 0)"/>
     <use xlink:href="#LCDReg-20" transform="translate(526.148438 0)"/>
     <use xlink:href="#LCDReg-53" transform="translate(551.148438 0)"/>
     <use xlink:href="#LCDReg-70" transform="translate(600.464844 0)"/>
     <use xlink:href="#LCDReg-65" transform="translate(648.462891 0)"/>
     <use xlink:href="#LCDReg-63" transform="translate(691.138672 0)"/>
     <use xlink:href="#LCDReg-69" transform="translate(733.814453 0)"/>
     <use xlink:href="#LCDReg-61" transform="translate(752.466797 0)"/>
     <use xlink:href="#LCDReg-6c" transform="translate(801.783203 0)"/>
     <use xlink:href="#LCDReg-20" transform="translate(841.773438 0)"/>
     <use xlink:href="#LCDReg-52" transform="translate(866.773438 0)"/>
     <use xlink:href="#LCDReg-65" transform="translate(911.839844 0)"/>
     <use xlink:href="#LCDReg-70" transform="translate(954.515625 0)"/>
     <use xlink:href="#LCDReg-6f" transform="translate(1002.513672 0)"/>
     <use xlink:href="#LCDReg-72" transform="translate(1051.830078 0)"/>
     <use xlink:href="#LCDReg-74" transform="translate(1097.146484 0)"/>
     <use xlink:href="#LCDReg-20" transform="translate(1139.822266 0)"/>
     <use xlink:href="#LCDReg-28" transform="translate(1164.822266 0)"/>
     <use xlink:href="#LCDReg-32" transform="translate(1191.482422 0)"/>
     <use xlink:href="#LCDReg-30" transform="translate(1238.162109 0)"/>
     <use xlink:href="#LCDReg-31" transform="translate(1283.228516 0)"/>
     <use xlink:href="#LCDReg-38" transform="translate(1306.572266 0)"/>
     <use xlink:href="#LCDReg-29" transform="translate(1355.9375 0)"/>
     <use xlink:href="#LCDReg-20" transform="translate(1382.597656 0)"/>
     <use xlink:href="#LCDReg-7c" transform="translate(1407.597656 0)"/>
     <use xlink:href="#LCDReg-20" transform="translate(1457.597656 0)"/>
     <use xlink:href="#LCDReg-50" transform="translate(1482.597656 0)"/>
     <use xlink:href="#LCDReg-61" transform="translate(1527.095703 0)"/>
     <use xlink:href="#LCDReg-72" transform="translate(1576.412109 0)"/>
     <use xlink:href="#LCDReg-69" transform="translate(1621.478516 0)"/>
     <use xlink:href="#LCDReg-73" transform="translate(1640.130859 0)"/>
     <use xlink:href="#LCDReg-20" transform="translate(1689.447266 0)"/>
     <use xlink:href="#LCDReg-41" transform="translate(1714.447266 0)"/>
     <use xlink:href="#LCDReg-67" transform="translate(1759.763672 0)"/>
     <use xlink:href="#LCDReg-72" transform="translate(1804.261719 0)"/>
     <use xlink:href="#LCDReg-65" transform="translate(1849.328125 0)"/>
     <use xlink:href="#LCDReg-65" transform="translate(1892.003906 0)"/>
     <use xlink:href="#LCDReg-6d" transform="translate(1934.679688 0)"/>
     <use xlink:href="#LCDReg-65" transform="translate(1983.996094 0)"/>
     <use xlink:href="#LCDReg-6e" transform="translate(2026.671875 0)"/>
     <use xlink:href="#LCDReg-74" transform="translate(2075.988281 0)"/>
     <use xlink:href="#LCDReg-20" transform="translate(2118.664062 0)"/>
     <use xlink:href="#LCDReg-28" transform="translate(2143.664062 0)"/>
     <use xlink:href="#LCDReg-32" transform="translate(2170.324219 0)"/>
     <use xlink:href="#LCDReg-30" transform="translate(2217.003906 0)"/>
     <use xlink:href="#LCDReg-31" transform="translate(2262.070312 0)"/>
     <use xlink:href="#LCDReg-35" transform="translate(2285.664062 0)"/>
     <use xlink:href="#LCDReg-29" transform="translate(2332.34375 0)"/>
     <use xlink:href="#LCDReg-20" transform="translate(2359.003906 0)"/>
     <use xlink:href="#LCDReg-7c" transform="translate(2384.003906 0)"/>
     <use xlink:href="#LCDReg-20" transform="translate(2434.003906 0)"/>
     <use xlink:href="#LCDReg-49" transform="translate(2459.003906 0)"/>
     <use xlink:href="#LCDReg-50" transform="translate(2477.65625 0)"/>
     <use xlink:href="#LCDReg-43" transform="translate(2525.654297 0)"/>
     <use xlink:href="#LCDReg-43" transform="translate(2568.330078 0)"/>
     <use xlink:href="#LCDReg-20" transform="translate(2611.005859 0)"/>
     <use xlink:href="#LCDReg-41" transform="translate(2636.005859 0)"/>
     <use xlink:href="#LCDReg-52" transform="translate(2685.322266 0)"/>
     <use xlink:href="#LCDReg-36" transform="translate(2734.638672 0)"/>
     <use xlink:href="#LCDReg-20" transform="translate(2782.636719 0)"/>
     <use xlink:href="#LCDReg-28" transform="translate(2807.636719 0)"/>
     <use xlink:href="#LCDReg-32" transform="translate(2834.296875 0)"/>
     <use xlink:href="#LCDReg-30" transform="translate(2880.976562 0)"/>
     <use xlink:href="#LCDReg-32" transform="translate(2930.292969 0)"/>
     <use xlink:href="#LCDReg-33" transform="translate(2976.972656 0)"/>
     <use xlink:href="#LCDReg-29" transform="translate(3019.648438 0)"/>
    </g>
    <!-- Data: Rohde et al., Berkley Earth (2020) -->
    <g style="fill: #666666" transform="translate(216.623437 416.507937) scale(0.13 -0.13)">
     <defs>
      <path id="LCDReg-44" d="M 2534 3753 
L 1231 3753 
L 809 4266 
L 2513 4266 
Q 2622 4266 2666 4247 
Q 2734 4219 2794 4150 
L 2888 4041 
L 2534 3753 
z
M 1131 3694 
L 900 2388 
L 597 2131 
L 388 2388 
L 709 4206 
L 1131 3694 
z
M 2575 3659 
L 2944 3959 
L 3031 3847 
Q 3081 3781 3081 3688 
Q 3081 3634 3066 3544 
L 2863 2391 
L 2559 2134 
L 2350 2391 
L 2575 3659 
z
M 584 597 
L -19 88 
L 297 1878 
L 597 2134 
L 809 1878 
L 584 597 
z
M 2259 269 
L 2031 575 
L 2259 1878 
L 2559 2134 
L 2772 1878 
L 2569 728 
Q 2544 594 2525 550 
Q 2497 494 2444 441 
L 2259 269 
z
M 634 513 
L 1931 513 
L 2191 197 
L 2081 113 
Q 1938 3 1750 0 
L 31 0 
L 634 513 
z
" transform="scale(0.015625)"/>
      <path id="LCDReg-68" d="M 2250 2391 
L 2459 2134 
L 2159 1878 
L 909 1878 
L 697 2134 
L 1000 2391 
L 2250 2391 
z
M 913 2466 
L 613 2209 
L 400 2466 
L 681 4053 
L 981 4309 
L 1194 4053 
L 913 2466 
z
M 797 1816 
L 516 213 
L 213 -44 
L 3 213 
L 288 1816 
L 588 2072 
L 797 1816 
z
M 2359 2450 
L 2644 4053 
L 2944 4309 
L 3156 4053 
L 2872 2450 
L 2572 2194 
L 2359 2450 
z
M 2247 1803 
L 2547 2059 
L 2759 1803 
L 2478 213 
L 2178 -44 
L 1966 213 
L 2247 1803 
z
" transform="scale(0.015625)"/>
      <path id="LCDReg-2c" d="M 656 513 
L 528 -209 
L 225 -469 
L 16 -209 
L 144 513 
L 656 513 
z
" transform="scale(0.015625)"/>
      <path id="LCDReg-6b" d="M 913 2466 
L 613 2209 
L 400 2466 
L 681 4053 
L 981 4309 
L 1194 4053 
L 913 2466 
z
M 981 2391 
L 2069 2391 
Q 2216 2391 2241 2378 
Q 2278 2366 2334 2306 
L 2491 2134 
L 2194 1878 
L 891 1878 
L 681 2134 
L 981 2391 
z
M 797 1816 
L 516 213 
L 213 -44 
L 3 213 
L 288 1816 
L 588 2072 
L 797 1816 
z
M 2247 1803 
L 2553 2066 
L 2644 1963 
Q 2747 1847 2747 1763 
Q 2747 1741 2738 1684 
L 2478 213 
L 2178 -44 
L 1966 213 
L 2247 1803 
z
M 3122 3869 
L 1447 2497 
L 1025 2497 
L 1094 2884 
L 2809 4266 
L 3194 4266 
L 3122 3869 
z
" transform="scale(0.015625)"/>
      <path id="LCDReg-79" d="M 822 2438 
L 544 2203 
L 444 2319 
Q 341 2438 341 2556 
Q 341 2613 353 2681 
L 594 4053 
L 897 4309 
L 1106 4053 
L 822 2438 
z
M 2788 2450 
L 2488 2197 
L 2275 2453 
L 2556 4053 
L 2859 4309 
L 3069 4053 
L 2788 2450 
z
M 916 2391 
L 2191 2391 
L 2400 2134 
L 2100 1878 
L 1113 1878 
Q 916 1878 872 1897 
Q 847 1909 747 2009 
L 613 2134 
L 916 2391 
z
M 2672 1788 
L 2478 691 
Q 2447 525 2325 422 
L 2169 294 
L 1941 566 
L 2159 1788 
L 2459 2044 
L 2672 1788 
z
M 1834 513 
L 2075 213 
L 1909 78 
Q 1847 28 1789 14 
Q 1731 0 1591 0 
L 391 0 
L 181 256 
L 481 513 
L 1834 513 
z
" transform="scale(0.015625)"/>
     </defs>
     <use xlink:href="#LCDReg-44"/>
     <use xlink:href="#LCDReg-61" transform="translate(49.316406 0)"/>
     <use xlink:href="#LCDReg-74" transform="translate(98.632812 0)"/>
     <use xlink:href="#LCDReg-61" transform="translate(137.183594 0)"/>
     <use xlink:href="#LCDReg-3a" transform="translate(186.5 0)"/>
     <use xlink:href="#LCDReg-20" transform="translate(207.837891 0)"/>
     <use xlink:href="#LCDReg-52" transform="translate(232.837891 0)"/>
     <use xlink:href="#LCDReg-6f" transform="translate(278.029297 0)"/>
     <use xlink:href="#LCDReg-68" transform="translate(327.345703 0)"/>
     <use xlink:href="#LCDReg-64" transform="translate(376.662109 0)"/>
     <use xlink:href="#LCDReg-65" transform="translate(425.978516 0)"/>
     <use xlink:href="#LCDReg-20" transform="translate(468.654297 0)"/>
     <use xlink:href="#LCDReg-65" transform="translate(493.654297 0)"/>
     <use xlink:href="#LCDReg-74" transform="translate(534.955078 0)"/>
     <use xlink:href="#LCDReg-20" transform="translate(577.630859 0)"/>
     <use xlink:href="#LCDReg-61" transform="translate(602.630859 0)"/>
     <use xlink:href="#LCDReg-6c" transform="translate(651.947266 0)"/>
     <use xlink:href="#LCDReg-2e" transform="translate(691.9375 0)"/>
     <use xlink:href="#LCDReg-2c" transform="translate(713.275391 0)"/>
     <use xlink:href="#LCDReg-20" transform="translate(734.613281 0)"/>
     <use xlink:href="#LCDReg-42" transform="translate(759.613281 0)"/>
     <use xlink:href="#LCDReg-65" transform="translate(808.929688 0)"/>
     <use xlink:href="#LCDReg-72" transform="translate(851.605469 0)"/>
     <use xlink:href="#LCDReg-6b" transform="translate(896.796875 0)"/>
     <use xlink:href="#LCDReg-6c" transform="translate(946.113281 0)"/>
     <use xlink:href="#LCDReg-65" transform="translate(986.103516 0)"/>
     <use xlink:href="#LCDReg-79" transform="translate(1026.654297 0)"/>
     <use xlink:href="#LCDReg-20" transform="translate(1074.652344 0)"/>
     <use xlink:href="#LCDReg-45" transform="translate(1099.652344 0)"/>
     <use xlink:href="#LCDReg-61" transform="translate(1142.328125 0)"/>
     <use xlink:href="#LCDReg-72" transform="translate(1191.644531 0)"/>
     <use xlink:href="#LCDReg-74" transform="translate(1236.960938 0)"/>
     <use xlink:href="#LCDReg-68" transform="translate(1277.011719 0)"/>
     <use xlink:href="#LCDReg-20" transform="translate(1326.328125 0)"/>
     <use xlink:href="#LCDReg-28" transform="translate(1351.328125 0)"/>
     <use xlink:href="#LCDReg-32" transform="translate(1377.988281 0)"/>
     <use xlink:href="#LCDReg-30" transform="translate(1424.667969 0)"/>
     <use xlink:href="#LCDReg-32" transform="translate(1473.984375 0)"/>
     <use xlink:href="#LCDReg-30" transform="translate(1520.664062 0)"/>
     <use xlink:href="#LCDReg-29" transform="translate(1569.980469 0)"/>
    </g>
   </g>
   <g id="patch_8">
    <path d="M 320.4 384.278484 
C 323.16872 384.278484 325.824414 383.139654 327.782195 381.112808 
C 329.739976 379.085961 330.84 376.336581 330.84 373.470187 
C 330.84 370.603794 329.739976 367.854414 327.782195 365.827567 
C 325.824414 363.800721 323.16872 362.661891 320.4 362.661891 
C 317.63128 362.661891 314.975586 363.800721 313.017805 365.827567 
C 311.060024 367.854414 309.96 370.603794 309.96 373.470187 
C 309.96 376.336581 311.060024 379.085961 313.017805 381.112808 
C 314.975586 383.139654 317.63128 384.278484 320.4 384.278484 
z
" clip-path="url(#p170d8ab008)" style="stroke: #ffffff; stroke-width: 3; stroke-linejoin: miter"/>
   </g>
  </g>
 </g>
 <defs>
  <clipPath id="p170d8ab008">
   <rect x="7.2" y="49.221281" width="626.4" height="345.8655"/>
  </clipPath>
 </defs>
</svg>
